<?xml version="1.0" encoding="UTF-8"?>
<svg width="273px" height="261px" viewBox="0 0 273 261" version="1.1" xmlns="http://www.w3.org/2000/svg" xmlns:xlink="http://www.w3.org/1999/xlink">
    <!-- Generator: Sketch 43.1 (39012) - http://www.bohemiancoding.com/sketch -->
    <title>check</title>
    <desc>Created with Sketch.</desc>
    <defs></defs>
    <g id="Homepage" stroke="none" stroke-width="1" fill="none" fill-rule="evenodd" opacity="0.0491394928">
        <g id="Pricing-Plans" transform="translate(-1098.000000, -1425.000000)" fill-rule="nonzero" fill="#000000">
            <g id="MIDMAIN" transform="translate(0.000000, 387.000000)">
                <g id="Row-2" transform="translate(45.000000, 886.000000)">
                    <g id="PP-X" transform="translate(1028.000000, 0.000000)">
                        <g id="check" transform="translate(25.000000, 152.000000)">
                            <path d="M250.022678,108.450294 C243.931898,108.450294 238.994971,113.382661 238.994971,119.466624 L238.994971,130.56232 C238.978441,159.505622 227.679867,186.710345 207.180873,207.164222 C186.696809,227.603186 159.476789,238.85708 130.527059,238.85708 L130.463074,238.85708 C70.6526133,238.82299 22.0212891,190.186971 22.0554141,130.43768 C22.0719434,101.49491 33.3705176,74.2901878 53.8700449,53.8352449 C74.3541094,33.3962816 101.574662,22.1423878 130.523859,22.1423878 L130.587844,22.1423878 C145.875844,22.1509102 160.708488,25.3074122 174.673078,31.5229408 C180.237586,33.9997776 186.754928,31.501102 189.234322,25.9439327 C191.71265,20.3867633 189.212994,13.8745469 183.649553,11.3977102 C166.845123,3.91766327 148.997215,0.119846939 130.600107,0.109726531 L130.523326,0.109726531 C95.6896992,0.109726531 62.9307656,13.6540286 38.282918,38.2476857 C13.615875,62.8605184 0.0202617188,95.5968429 4.18641494e-14,130.425961 C-0.0197285156,165.254014 13.5374941,198.005786 38.1768105,222.647382 C62.816127,247.288978 95.5857246,260.870565 130.450277,260.890806 L130.527059,260.890806 C165.360686,260.890806 198.119619,247.347037 222.767467,222.752847 C247.43451,198.139482 261.030123,165.403157 261.050385,130.568712 L261.050385,119.467157 C261.050385,113.382661 256.113457,108.450294 250.022678,108.450294 Z" id="Shape"></path>
                            <path d="M269.769855,15.3420061 C265.463174,11.0403 258.480879,11.0403 254.174197,15.3420061 L130.524926,138.863186 L102.473643,110.840841 C98.1674941,106.538602 91.184666,106.538602 86.8785176,110.840841 C82.5718359,115.14308 82.5718359,122.118171 86.8785176,126.42041 L122.727896,162.232806 C124.880971,164.384192 127.703748,165.459618 130.525992,165.459618 C133.348236,165.459618 136.17048,164.384192 138.324088,162.232806 L269.769855,30.9215755 C274.076537,26.6193367 274.076537,19.6442449 269.769855,15.3420061 Z" id="Shape"></path>
                        </g>
                    </g>
                </g>
            </g>
        </g>
    </g>
</svg>