<?xml version="1.0" encoding="UTF-8"?>
<svg width="251px" height="57px" viewBox="0 0 251 57" version="1.1" xmlns="http://www.w3.org/2000/svg" xmlns:xlink="http://www.w3.org/1999/xlink">
    <!-- Generator: Sketch 43.1 (39012) - http://www.bohemiancoding.com/sketch -->
    <title>haulix</title>
    <desc>Created with Sketch.</desc>
    <defs>
        <polygon id="path-1" points="28.5253885 0.005 0 0.005 0 57 28.5253885 57 57.050777 57 57.050777 0.005 28.5253885 0.005"></polygon>
    </defs>
    <g id="Page-1" stroke="none" stroke-width="1" fill="none" fill-rule="evenodd">
        <g id="haulix">
            <path d="M250.284,40.909 L241.223,40.909 C241.151,40.909 241.082,40.878 241.034,40.825 L234.492,33.611 C234.391,33.5 234.217,33.499 234.115,33.61 L227.489,40.826 C227.441,40.879 227.373,40.909 227.301,40.909 L218.458,40.909 C218.236,40.909 218.12,40.644 218.271,40.48 L229.425,28.369 C229.515,28.272 229.515,28.123 229.427,28.025 L218.837,16.345 C218.688,16.181 218.805,15.919 219.026,15.919 L228.018,15.919 C228.09,15.919 228.158,15.949 228.207,16.002 L234.284,22.685 C234.385,22.795 234.559,22.796 234.661,22.686 L240.819,16.001 C240.867,15.949 240.935,15.919 241.006,15.919 L249.779,15.919 C250.001,15.919 250.117,16.183 249.967,16.347 L239.351,27.909 C239.261,28.006 239.261,28.155 239.35,28.253 L250.473,40.482 C250.622,40.646 250.506,40.909 250.284,40.909 Z M214.153,40.909 L207.026,40.909 C206.885,40.909 206.771,40.794 206.771,40.653 L206.771,16.174 C206.771,16.033 206.885,15.919 207.026,15.919 L214.153,15.919 C214.294,15.919 214.408,16.033 214.408,16.174 L214.408,40.653 C214.408,40.794 214.294,40.909 214.153,40.909 L214.153,40.909 Z" id="Fill-1" fill="#E67438"></path>
            <path d="M92.377,16.171 L92.377,29.527 C92.377,29.666 92.264,29.779 92.125,29.779 L77.893,29.779 C77.754,29.779 77.641,29.666 77.641,29.527 L77.641,16.171 C77.641,16.032 77.529,15.919 77.389,15.919 L70.257,15.919 C70.117,15.919 70.005,16.032 70.005,16.171 L70.005,40.657 C70.005,40.796 70.117,40.909 70.257,40.909 L77.389,40.909 C77.529,40.909 77.641,40.796 77.641,40.657 L77.641,35.767 C77.641,35.628 77.754,35.515 77.893,35.515 L92.125,35.515 C92.264,35.515 92.377,35.628 92.377,35.767 L92.377,40.657 C92.377,40.796 92.489,40.909 92.629,40.909 L99.762,40.909 C99.901,40.909 100.014,40.796 100.014,40.657 L100.014,16.171 C100.014,16.032 99.901,15.919 99.762,15.919 L92.629,15.919 C92.489,15.919 92.377,16.032 92.377,16.171 Z M138.406,40.538 L125.427,16.05 C125.383,15.967 125.296,15.915 125.202,15.915 L117.453,15.915 C117.359,15.915 117.274,15.965 117.229,16.047 L103.84,40.535 C103.747,40.705 103.87,40.913 104.064,40.913 L111.747,40.913 C111.842,40.913 111.929,40.86 111.973,40.775 L121.231,23.019 L121.323,23.009 L124.781,29.582 C124.821,29.657 124.766,29.748 124.68,29.748 L122.077,29.748 C121.983,29.748 121.897,29.799 121.853,29.881 L118.978,35.138 C118.885,35.308 119.008,35.515 119.202,35.515 L127.724,35.515 C127.819,35.515 127.907,35.569 127.951,35.654 L130.592,40.774 C130.636,40.859 130.723,40.913 130.819,40.913 L138.18,40.913 C138.373,40.913 138.496,40.708 138.406,40.538 Z M202.095,40.653 L202.095,35.284 C202.095,35.143 201.981,35.029 201.84,35.029 L184.676,35.029 C184.535,35.029 184.42,34.914 184.42,34.773 L184.42,16.174 C184.42,16.033 184.306,15.919 184.165,15.919 L177.039,15.919 C176.898,15.919 176.784,16.033 176.784,16.174 L176.784,40.653 C176.784,40.794 176.898,40.909 177.039,40.909 L201.84,40.909 C201.981,40.909 202.095,40.794 202.095,40.653 Z M171.342,16.17 L171.342,38.761 C171.342,40.045 170.301,41.086 169.017,41.086 L144.566,41.086 C143.276,41.086 142.231,40.041 142.231,38.751 L142.231,16.17 C142.231,16.029 142.345,15.915 142.486,15.915 L149.498,15.915 C149.639,15.915 149.753,16.029 149.753,16.17 L149.753,34.951 C149.753,35.092 149.868,35.207 150.009,35.207 L163.554,35.207 C163.695,35.207 163.809,35.092 163.809,34.951 L163.809,16.17 C163.809,16.029 163.923,15.915 164.064,15.915 L171.087,15.915 C171.228,15.915 171.342,16.029 171.342,16.17 L171.342,16.17 Z" id="Fill-3" fill="#3C4551"></path>
            <g id="Group-8">
                <mask id="mask-2" fill="white">
                    <use xlink:href="#path-1"></use>
                </mask>
                <g id="Clip-5"></g>
                <path d="M51.094,27.529 C49.665,34.728 45.256,41.206 39.417,45.655 C34.349,49.534 28.21,51.893 22.002,51.893 C15.353,51.893 9.555,49.284 5.716,44.535 C1.737,39.676 0.327,33.228 1.667,26.39 C2.956,19.911 6.675,14.003 11.664,9.614 C11.694,9.594 11.734,9.564 11.784,9.534 C17.113,4.895 23.901,2.006 30.759,2.006 C37.418,2.006 43.196,4.625 47.065,9.374 C51.024,14.243 52.454,20.691 51.094,27.529" id="Fill-4" fill="#FFFFFF" mask="url(#mask-2)"></path>
                <path d="M50.076,27.505 C48.705,34.407 44.478,40.618 38.88,44.884 C33.762,49.332 27.202,51.563 20.626,51.563 C14.252,51.563 9.25,49.327 5.569,44.774 C1.754,40.115 0.45,34.381 1.735,27.834 C3.096,20.981 6.73,14.613 12.271,10.328 C12.3,10.309 12.338,10.28 12.386,10.252 C17.495,5.804 24.004,3.034 30.579,3.034 C36.963,3.034 42.503,5.545 46.213,10.098 C50.009,14.766 51.38,20.949 50.076,27.505 Z M51.801,8.622 C47.306,3.062 40.625,0.005 32.985,0.005 C25.441,0.005 17.984,3.158 12.079,8.229 C6.318,13.146 2.053,19.904 0.567,27.352 C-0.986,35.231 0.672,42.708 5.274,48.392 C9.76,53.952 16.431,57 24.071,57 C30.991,57 37.845,54.345 43.481,50.002 C49.98,44.999 54.888,37.733 56.479,29.662 C58.042,21.783 56.374,14.306 51.801,8.622 L51.801,8.622 Z" id="Fill-6" fill="#3C4551" mask="url(#mask-2)"></path>
                <path d="M38.88,44.884 C33.762,49.332 27.263,52.092 20.687,52.092 C14.313,52.092 8.753,49.59 5.072,45.037 C1.257,40.379 -0.094,34.187 1.19,27.64 C2.551,20.786 6.73,14.613 12.271,10.328 C7.488,14.536 3.922,20.201 2.685,26.413 C1.401,32.969 2.753,39.152 6.568,43.81 C10.248,48.363 15.808,50.865 22.182,50.865 C28.135,50.865 34.02,48.603 38.88,44.884" id="Fill-7" fill="#545E6F" mask="url(#mask-2)"></path>
            </g>
            <path d="M45.69,27.175 C45.595,27.624 45.473,28.059 45.337,28.494 C42.333,38.716 32.178,46.709 21.765,46.709 C16.273,46.709 11.475,44.548 8.294,40.619 C5.453,37.126 4.189,32.64 4.637,27.827 L10.537,27.746 C10.618,27.746 10.714,27.719 10.809,27.678 C10.904,27.651 10.972,27.596 11.067,27.542 C11.149,27.474 11.23,27.406 11.298,27.324 C11.325,27.297 11.339,27.27 11.366,27.243 C11.407,27.189 11.448,27.121 11.488,27.039 L12.614,25.213 L12.712,26.06 L12.263,32.014 C12.25,32.137 12.263,32.259 12.277,32.368 C12.304,32.49 12.345,32.572 12.413,32.667 C12.467,32.748 12.535,32.803 12.63,32.857 C12.725,32.912 12.821,32.939 12.929,32.939 L12.943,32.939 L12.957,32.939 C13.065,32.952 13.188,32.925 13.296,32.884 C13.405,32.843 13.5,32.762 13.609,32.68 C13.704,32.612 13.799,32.504 13.867,32.395 C13.949,32.286 14.017,32.15 14.058,32.014 L14.161,31.708 L17.447,22.806 L17.531,25.836 L16.273,42.101 C16.26,42.291 16.273,42.468 16.301,42.618 C16.341,42.781 16.409,42.944 16.477,43.066 C16.559,43.202 16.668,43.311 16.776,43.392 C16.899,43.488 17.035,43.542 17.171,43.569 L17.198,43.583 C17.347,43.596 17.51,43.583 17.646,43.542 C17.796,43.488 17.918,43.419 18.041,43.311 C18.163,43.202 18.272,43.066 18.353,42.917 C18.448,42.767 18.516,42.59 18.557,42.414 L18.795,41.339 L23.514,22.142 L23.799,24.038 L23.628,31.987 C23.628,32.137 23.641,32.286 23.696,32.409 C23.75,32.544 23.804,32.68 23.899,32.776 C23.995,32.884 24.09,32.966 24.212,33.034 C24.334,33.102 24.484,33.143 24.62,33.17 L24.647,33.17 L24.674,33.17 L24.688,33.17 C24.837,33.17 24.973,33.156 25.109,33.115 C25.245,33.075 25.368,33.007 25.49,32.912 C25.599,32.83 25.707,32.721 25.803,32.599 C25.884,32.477 25.952,32.341 26.007,32.191 L26.154,31.708 L28.527,25.612 L28.969,26.09 L29.065,26.55 C29.092,26.686 29.147,26.794 29.215,26.917 C29.283,27.012 29.364,27.107 29.473,27.189 C29.568,27.257 29.69,27.311 29.813,27.352 C29.949,27.392 30.085,27.42 30.248,27.42 L45.69,27.175" id="Fill-9" fill="#3C4551"></path>
            <path d="M33.452,24.918 L31.358,25 L30.018,19.515 C29.602,17.476 28.203,17.773 27.688,19.345 L27.036,21.343 L26.383,22.444 L26.057,13.472 C28.001,14.152 30.122,14.716 31.414,16.307 C33.222,18.509 33.629,21.914 33.452,24.918" id="Fill-10" fill="#D76D35"></path>
            <path d="M37.19,24.755 L33.452,24.918 C33.629,21.914 32.772,19.114 30.964,16.912 C29.673,15.321 28.001,14.152 26.057,13.472 L25.962,11.053 C28.667,10.36 33.511,11.867 35.577,14.409 C37.643,16.924 38.551,22.707 37.19,24.755" id="Fill-11" fill="#DE7733"></path>
            <path d="M42.274,24.551 L37.19,24.755 C37.394,21.316 36.429,18.122 34.363,15.607 C32.296,13.065 29.36,11.474 25.962,11.053 L25.935,10.142 L25.93,9.85 C25.93,8.367 24.413,8.504 24.09,9.66 L23.787,10.93 C16.541,11.053 9.486,16.232 6.645,23.097 C9.799,14.75 18.325,7.584 27.038,7.584 C31.905,7.584 37.21,9.088 40.052,12.569 C42.458,15.518 44.498,21.263 42.274,24.551" id="Fill-12" fill="#E58232"></path>
            <path d="M46.148,24.388 L42.274,24.551 C42.533,20.514 41.404,16.776 38.998,13.826 C36.157,10.346 31.916,8.416 27.049,8.416 C17.316,8.416 7.814,16.314 5.748,26.087 L4.878,26.128 C4.891,25.951 4.932,25.788 4.959,25.612 C7.175,14.492 17.968,5.439 29.007,5.439 C34.512,5.439 39.297,7.614 42.492,11.542 C45.346,15.049 46.611,19.549 46.148,24.388" id="Fill-13" fill="#EB8C30"></path>
            <path d="M23.787,10.93 L23.623,11.583 L20.402,24.932 L19.545,27.392 L20.048,14.601 C20.142,13.009 18.743,13.297 18.431,14.315 L15.223,23.464 L14.638,24.606 L14.706,21.071 L14.718,20.866 C14.728,19.725 13.691,19.774 13.224,20.691 L10.465,25.883 L5.748,26.087 C5.924,25.231 6.169,24.402 6.455,23.586 C6.523,23.423 6.577,23.26 6.645,23.097 C9.486,16.232 16.541,11.053 23.787,10.93" id="Fill-14" fill="#E67438"></path>
            <path d="M30.248,27.42 L45.337,28.494 C45.473,28.059 45.595,27.624 45.69,27.175 L30.248,27.42 Z M26.154,31.708 L28.969,26.091 L28.521,23.94 L26.154,31.708 Z M18.795,41.339 L23.799,24.038 L23.927,18.108 L18.795,41.339 Z M14.161,31.708 L17.545,25.652 L17.945,20.473 L14.161,31.708 Z M12.834,24.429 L12.712,26.06 L11.366,27.243 C11.407,27.189 11.448,27.121 11.488,27.039 L12.834,24.429 L12.834,24.429 Z" id="Fill-15" fill="#252A2F"></path>
            <polyline id="Fill-16" fill="#CE542C" points="14.713 21.065 15.219 23.466 14.465 25.612 14.713 21.065"></polyline>
            <polyline id="Fill-17" fill="#CE542C" points="20.048 14.607 20.398 24.931 19.251 29.676 20.048 14.607"></polyline>
            <polyline id="Fill-18" fill="#CE542C" points="25.93 10.147 27.038 21.338 26.007 24.483 25.93 10.147"></polyline>
        </g>
    </g>
</svg>