<?xml version="1.0" encoding="UTF-8"?>
<svg width="1102px" height="30px" viewBox="0 0 1102 30" version="1.1" xmlns="http://www.w3.org/2000/svg" xmlns:xlink="http://www.w3.org/1999/xlink">
    <!-- Generator: Sketch 43.1 (39012) - http://www.bohemiancoding.com/sketch -->
    <title>separwave 3</title>
    <desc>Created with Sketch.</desc>
    <defs>
        <radialGradient cx="50%" cy="0%" fx="50%" fy="0%" r="100%" gradientTransform="translate(0.500000,0.000000),scale(0.002722,1.000000),rotate(90.000000),scale(1.000000,239.376382),translate(-0.500000,-0.000000)" id="radialGradient-1">
            <stop stop-color="#E4773D" offset="0%"></stop>
            <stop stop-color="#F4F4F4" offset="100%"></stop>
        </radialGradient>
    </defs>
    <g id="Homepage" stroke="none" stroke-width="1" fill="none" fill-rule="evenodd">
        <g id="Registration" transform="translate(-167.000000, -267.000000)">
            <g id="separwave-3" transform="translate(167.000000, 267.000000)">
                <path d="M0.5,15.5 L1101.5,15.5" id="Separ" stroke="url(#radialGradient-1)" stroke-linecap="square"></path>
                <polygon id="_Path_" fill="#E4773D" fill-rule="nonzero" points="475 14.8361111 475.604304 18.4083333 476.208608 15.9777778 476.812911 20.5083333 477.417215 15.5361111 478.021519 16.2361111 478.625823 15.3972222 479.230127 16.9361111 479.83443 15.3972222 480.442658 17.2166667 481.043038 15.3972222 481.651266 15.9555556 482.25557 15.2555556 482.859873 17.3555556 483.464177 15.2555556 484.068481 19.175 484.672785 15.2555556 485.277089 17.9166667 485.881392 15.3972222 486.485696 19.175 487.09 15.8166667 487.694304 17.4972222 488.298608 16.375 488.902911 18.8972222 489.507215 15.8166667 490.111519 21.1361111 490.715823 16.7972222 491.320127 23.375 491.92443 17.775 492.528734 26.5944444 493.136962 18.475 493.741266 27.1527778 494.34557 19.3166667 494.949873 29.5333333 495.554177 19.6361111 496.158481 26.1555556 496.762785 21.8166667 497.367089 26.7166667 497.971392 18.5972222 498.575696 25.8777778 499.18 17.9583333 499.784304 22.0972222 500.388608 16.1388889 500.992911 19.8583333 501.597215 15.2555556 502.201519 20.1555556 502.805823 15.2555556 503.410127 16.9361111 504.01443 15.1166667 504.618734 15.6777778 505.226962 15.2555556 505.831266 15.8166667 506.43557 15.5361111 507.039873 16.9361111 507.644177 15.2555556 508.248481 17.3555556 508.852785 15.1166667 509.457089 15.6777778 510.061392 15.2555556 510.665696 17.3555556 511.27 15.5361111 511.874304 16.5166667 512.478608 15.8166667 513.082911 18.475 513.687215 16.2361111 514.291519 22.8138889 514.895823 15.6777778 515.504051 19.3166667 516.10443 15.6777778 516.712658 21.4166667 517.316962 16.2361111 517.921266 25.1055556 518.52557 16.375 519.129873 28.325 519.734177 19.0361111 520.338481 24.2666667 520.942785 18.1972222 521.547089 23.0944444 522.151392 15.2555556 522.755696 19.0361111 523.36 15.2555556 523.964304 17.2166667 524.568608 15.3972222 525.172911 18.7555556 525.777215 15.3972222 526.381519 18.0555556 526.989747 15.2555556 527.594051 17.3555556 528.198354 15.2555556 528.802658 21.275 529.406962 20.2944444 530.011266 23.7944444 530.61557 17.9166667 531.219873 21.975 531.824177 19.3166667 532.428481 20.575 533.032785 17.775 533.637089 23.2472222 534.241392 19.3166667 534.845696 25.625 535.45 19.175 536.054304 26.7472222 536.658608 21.1361111 537.262911 26.8861111 537.867215 18.6166667 538.471519 22.5472222 539.075823 18.1972222 539.684051 22.3944444 540.288354 15.8166667 540.892658 18.475 541.496962 15.3972222 542.101266 18.8972222 542.70557 16.0972222 543.309873 21.975 543.914177 17.4972222 544.518481 19.4555556 545.122785 16.5166667 545.727089 18.475 546.331392 14.8361111 546.935696 16.6555556 547.54 15.1166667 548.144304 18.1972222 548.748608 14.9777778 549.352911 16.7972222 549.957215 15.5361111 550.561519 16.0972222 551.165823 14.8361111 551.774051 15.6777778 552.378354 14.8361111 553.088608 18.7166667 553.692911 17.2166667 554.297215 20.8166667 554.901519 15.5361111 555.505823 16.2361111 556.110127 15.3972222 556.71443 16.9361111 557.318734 15.3972222 557.923038 17.2166667 558.527342 15.3972222 559.131646 15.9555556 559.735949 15.2555556 560.340253 17.3555556 560.948481 15.2555556 561.552785 19.175 562.157089 15.2555556 562.761392 17.9166667 563.365696 15.3972222 563.97 19.175 564.574304 15.8166667 565.178608 17.4972222 565.782911 16.375 566.387215 18.8972222 566.991519 15.8166667 567.595823 21.1361111 568.200127 16.7972222 568.80443 23.375 569.408734 17.775 570.013038 23.4972222 570.617342 15.3777778 571.221646 24.0583333 571.825949 19.3166667 572.430253 29.5333333 573.038481 22.1138889 573.642785 29.2527778 574.247089 24.9138889 574.851392 29.8138889 575.455696 21.6944444 576.06 28.975 576.664304 20.4361111 577.268608 25.1944444 577.872911 18.6166667 578.477215 22.9555556 579.081519 15.2555556 579.685823 20.1555556 580.290127 15.2555556 580.89443 16.9361111 581.498734 15.1166667 582.103038 15.6777778 582.707342 15.2555556 583.311646 15.8166667 583.915949 15.5361111 584.524177 16.9361111 585.128481 15.2555556 585.732785 17.3555556 586.337089 15.1166667 586.941392 15.6777778 587.545696 15.2555556 588.15 17.3555556 588.754304 15.5361111 589.358608 16.5166667 589.962911 15.8166667 590.567215 18.475 591.171519 16.2361111 591.775823 22.8138889 592.380127 15.6777778 592.98443 19.3166667 593.588734 15.6777778 594.193038 21.4166667 594.797342 16.2361111 595.401646 26.0333333 596.009873 16.375 596.614177 29.2527778 597.218481 19.0361111 597.822785 25.1944444 598.427089 18.1972222 599.031392 23.0944444 599.635696 15.2555556 600.24 19.0361111 600.844304 15.2555556 601.448608 17.2166667 602.052911 15.3972222 602.657215 18.7555556 603.261519 15.3972222 603.865823 18.0555556 604.470127 15.2555556 605.07443 17.3555556 605.678734 15.2555556 606.283038 21.275 606.887342 20.2944444 607.491646 23.7944444 608.099873 17.9166667 608.704177 21.975 609.308481 19.3166667 609.912785 20.575 610.517089 17.775 611.121392 26.0333333 611.725696 19.3166667 612.33 28.4138889 612.934304 16.3888889 613.538608 26.7472222 614.142911 18.3472222 614.747215 29.675 615.351519 18.6166667 615.955823 25.3333333 616.560127 18.1972222 617.16443 22.3944444 617.768734 15.8166667 618.373038 18.475 618.981266 15.3972222 619.581646 18.8972222 620.189873 16.0972222 620.794177 21.975 621.398481 17.4972222 622.002785 19.4555556 622.607089 16.5166667 623.211392 18.475 623.815696 14.8361111 624.42 16.6555556 625.024304 15.1166667 625.628608 18.1972222 626.232911 14.9777778 626.837215 16.7972222 627.441519 15.5361111 628.045823 21.0527778 628.650127 14.8361111 629.25443 20.6333333 629.858734 14.8361111 629.25443 11.5194444 628.650127 14.8361111 628.045823 8.31111111 627.441519 14.1361111 626.837215 12.8777778 626.232911 14.6972222 625.628608 11.4777778 625.024304 14.5583333 624.42 13.0166667 623.815696 14.8361111 623.211392 11.1972222 622.607089 13.1583333 622.002785 10.2166667 621.398481 12.1777778 620.794177 7.69722222 620.189873 13.5777778 619.581646 10.7777778 618.981266 14.2777778 618.373038 11.1972222 617.768734 13.8555556 617.16443 7.27777778 616.560127 11.4777778 615.955823 4.33888889 615.351519 11.0583333 614.747215 0 614.142911 12.5638889 613.538608 4.16666667 612.934304 14.525 612.33 1.26111111 611.725696 10.3583333 611.121392 3.63888889 610.517089 11.8972222 609.912785 9.09722222 609.308481 10.3583333 608.704177 7.69722222 608.099873 11.7583333 607.491646 5.87777778 606.887342 9.37777778 606.283038 8.39722222 605.678734 14.4166667 605.07443 12.3166667 604.470127 14.4166667 603.865823 11.6166667 603.261519 14.2777778 602.657215 10.9166667 602.052911 14.2777778 601.448608 12.4583333 600.844304 14.4166667 600.24 10.6388889 599.635696 14.4166667 599.031392 6.57777778 598.427089 11.4777778 597.822785 4.47777778 597.218481 10.6388889 596.614177 0.419444444 596.009873 13.2972222 595.401646 3.63888889 594.797342 13.4361111 594.193038 8.25833333 593.588734 13.9972222 592.98443 10.3583333 592.380127 13.9972222 591.775823 6.85833333 591.171519 13.4361111 590.567215 11.1972222 589.962911 13.8555556 589.358608 13.1583333 588.754304 14.1361111 588.15 12.3166667 587.545696 14.4166667 586.941392 13.9972222 586.337089 14.5583333 585.732785 12.3166667 585.128481 14.4166667 584.524177 12.7361111 583.915949 14.1361111 583.311646 13.8555556 582.707342 14.4166667 582.103038 13.9972222 581.498734 14.5583333 580.89443 12.7361111 580.290127 14.4166667 579.685823 9.51944444 579.081519 14.4166667 578.477215 6.71944444 577.872911 11.0583333 577.268608 4.47777778 576.664304 9.23888889 576.06 0.7 575.455696 13.2444444 574.851392 5.125 574.247089 10.025 573.642785 0.419444444 573.038481 7.55833333 572.430253 0.138888889 571.825949 10.3583333 571.221646 2.51944444 570.617342 11.1972222 570.013038 3.08055556 569.408734 11.8972222 568.80443 6.3 568.200127 12.8777778 567.595823 8.53888889 566.991519 13.8555556 566.387215 10.7777778 565.782911 13.2972222 565.178608 12.1777778 564.574304 13.8555556 563.97 10.4972222 563.365696 14.2777778 562.761392 11.7583333 562.157089 14.4166667 561.552785 10.4972222 560.948481 14.4166667 560.340253 12.3166667 559.735949 14.4166667 559.131646 13.7166667 558.527342 14.2777778 557.923038 12.4583333 557.318734 14.2777778 556.71443 12.7361111 556.110127 14.2777778 555.505823 13.4361111 554.901519 14.1361111 554.297215 7 553.692911 12.4583333 553.088608 9.09722222 552.378354 14.8361111 551.774051 13.9972222 551.165823 14.8361111 550.561519 13.5777778 549.957215 14.1361111 549.352911 12.8777778 548.748608 14.6972222 548.144304 11.4777778 547.54 14.5583333 546.935696 13.0166667 546.331392 14.8361111 545.727089 11.1972222 545.122785 13.1583333 544.518481 10.2166667 543.914177 12.1777778 543.309873 7.69722222 542.70557 13.5777778 542.101266 10.7777778 541.496962 14.2777778 540.892658 11.1972222 540.288354 13.8555556 539.684051 7.27777778 539.075823 11.4777778 538.471519 4.33888889 537.867215 11.0583333 537.262911 0 536.658608 8.53888889 536.054304 0.138888889 535.45 10.4972222 534.845696 1.26111111 534.241392 10.3583333 533.637089 3.63888889 533.032785 11.8972222 532.428481 9.09722222 531.824177 10.3583333 531.219873 7.69722222 530.61557 11.7583333 530.011266 5.87777778 529.406962 9.37777778 528.802658 8.39722222 528.198354 14.4166667 527.594051 12.3166667 526.989747 14.4166667 526.381519 11.6166667 525.777215 14.2777778 525.172911 10.9166667 524.568608 14.2777778 523.964304 12.4583333 523.36 14.4166667 522.755696 10.6388889 522.151392 14.4166667 521.547089 6.57777778 520.942785 11.4777778 520.338481 4.47777778 519.734177 10.6388889 519.129873 1.96944444 518.52557 13.2972222 517.921266 5.18888889 517.316962 13.4361111 516.712658 8.25833333 516.10443 13.9972222 515.504051 10.3583333 514.895823 13.9972222 514.291519 6.85833333 513.687215 13.4361111 513.082911 11.1972222 512.478608 13.8555556 511.874304 13.1583333 511.27 14.1361111 510.665696 12.3166667 510.061392 14.4166667 509.457089 13.9972222 508.852785 14.5583333 508.248481 12.3166667 507.644177 14.4166667 507.039873 12.7361111 506.43557 14.1361111 505.831266 13.8555556 505.226962 14.4166667 504.618734 13.9972222 504.01443 14.5583333 503.410127 12.7361111 502.805823 14.4166667 502.201519 9.51944444 501.597215 14.4166667 500.992911 7.64722222 500.388608 11.0583333 499.784304 5.40833333 499.18 11.7166667 498.575696 2.55833333 497.971392 10.4555556 497.367089 1.71944444 496.762785 13.1222222 496.158481 7.23333333 495.554177 12.825 494.949873 6.95555556 494.34557 10.3583333 493.741266 2.51944444 493.136962 11.1972222 492.528734 3.08055556 491.92443 11.8972222 491.320127 6.3 490.715823 12.8777778 490.111519 8.53888889 489.507215 13.8555556 488.902911 10.7777778 488.298608 13.2972222 487.694304 12.1777778 487.09 13.8555556 486.485696 10.4972222 485.881392 14.2777778 485.277089 11.7583333 484.672785 14.4166667 484.068481 10.4972222 483.464177 14.4166667 482.859873 12.3166667 482.25557 14.4166667 481.651266 13.7166667 481.043038 14.2777778 480.442658 12.4583333 479.83443 14.2777778 479.230127 12.7361111 478.625823 14.2777778 478.021519 13.4361111 477.417215 14.1361111 476.812911 9.16666667 476.208608 14.625 475.604304 11.2666667"></polygon>
            </g>
        </g>
    </g>
</svg>