<?xml version="1.0" encoding="UTF-8"?>
<svg width="71px" height="65px" viewBox="0 0 71 65" version="1.1" xmlns="http://www.w3.org/2000/svg" xmlns:xlink="http://www.w3.org/1999/xlink">
    <!-- Generator: Sketch 43.1 (39012) - http://www.bohemiancoding.com/sketch -->
    <title>padlock</title>
    <desc>Created with Sketch.</desc>
    <defs>
        <linearGradient x1="100%" y1="10.3118142%" x2="34.4004235%" y2="73.4736712%" id="linearGradient-1">
            <stop stop-color="#E4773D" offset="0%"></stop>
            <stop stop-color="#8F97A5" offset="100%"></stop>
        </linearGradient>
    </defs>
    <g id="Homepage" stroke="none" stroke-width="1" fill="none" fill-rule="evenodd">
        <g id="Forgot-Password" transform="translate(-685.000000, -322.000000)" fill-rule="nonzero" fill="url(#linearGradient-1)">
            <g id="Forgot-Password-Modal" transform="translate(0.000000, -1.000000)">
                <g id="F-box" transform="translate(308.000000, 289.000000)">
                    <g id="padlock" transform="translate(377.000000, 34.000000)">
                        <path d="M61.337731,9.53328475 C55.1999487,3.39763453 47.0356776,0.0164686099 38.3611396,0.0164686099 C29.526232,0.0164686099 21.2599076,3.49965247 15.0929671,9.82476457 C14.4223306,10.5097422 14.4369097,11.6173655 15.1221253,12.302343 C15.8073409,12.9727466 16.9153491,12.9581726 17.6005647,12.2731951 C23.1114476,6.63306054 30.4738706,3.52880045 38.3611396,3.52880045 C54.3543634,3.51422646 67.3588809,16.5142265 67.3588809,32.5018946 C67.3588809,48.4895628 54.3543634,61.4895628 38.3611396,61.4895628 C22.3679158,61.4895628 9.36339836,48.4895628 9.36339836,32.5018946 L9.36339836,32.1375448 L12.2500513,35.0231951 C12.5853696,35.3583969 13.0373203,35.5332848 13.489271,35.5332848 C13.9412218,35.5332848 14.3785934,35.3583969 14.7284908,35.0231951 C15.4137064,34.3382175 15.4137064,33.2305942 14.7284908,32.5456166 L8.86771047,26.6722982 C8.18249487,25.9873206 7.07448665,25.9873206 6.38927105,26.6722982 L0.513911704,32.5456166 C-0.171303901,33.2305942 -0.171303901,34.3382175 0.513911704,35.0231951 C0.849229979,35.3583969 1.3011807,35.5332848 1.75313142,35.5332848 C2.20508214,35.5332848 2.6424538,35.3583969 2.99235113,35.0231951 L5.87900411,32.1375448 L5.87900411,32.5018946 C5.87900411,41.1734193 9.26134497,49.3348543 15.3991273,55.4705045 C21.5369097,61.6061547 29.7011807,64.9873206 38.3757187,64.9873206 C47.0502567,64.9873206 55.2145277,61.6061547 61.3523101,55.4705045 C67.4900924,49.3348543 70.8578542,41.1734193 70.8578542,32.5018946 C70.8578542,23.83037 67.4755133,15.668935 61.337731,9.53328475 Z" id="Shape"></path>
                        <path d="M38.3611396,13.6140022 C32.675308,13.6140022 28.0537474,18.2339574 28.0537474,23.9178139 L28.0537474,28.8875448 L24.8463552,28.8875448 C23.8841376,28.8875448 23.0968686,29.6745404 23.0968686,30.6364238 L23.0968686,48.081491 C23.0968686,49.0433744 23.8841376,49.83037 24.8463552,49.83037 L51.8905031,49.83037 C52.8527207,49.83037 53.6399897,49.0433744 53.6399897,48.081491 L53.6399897,30.6509978 C53.6399897,29.6891143 52.8527207,28.9021188 51.8905031,28.9021188 L48.6831109,28.9021188 L48.6831109,23.9323879 C48.6831109,18.2485314 44.0469713,13.6140022 38.3611396,13.6140022 Z M31.5527207,23.9323879 C31.5527207,20.1722982 34.6143224,17.1263341 38.3611396,17.1263341 C42.1079569,17.1263341 45.1695585,20.1868722 45.1695585,23.9323879 L45.1695585,28.9021188 L31.5527207,28.9021188 L31.5527207,23.9323879 L31.5527207,23.9323879 Z M50.1410164,46.3326121 L26.5958419,46.3326121 L26.5958419,32.3853027 L50.1410164,32.3853027 L50.1410164,46.3326121 Z" id="Shape"></path>
                    </g>
                </g>
            </g>
        </g>
    </g>
</svg>