<?xml version="1.0" encoding="UTF-8"?>
<svg width="66px" height="64px" viewBox="0 0 66 64" version="1.1" xmlns="http://www.w3.org/2000/svg" xmlns:xlink="http://www.w3.org/1999/xlink">
    <!-- Generator: Sketch 43.1 (39012) - http://www.bohemiancoding.com/sketch -->
    <title>hiking</title>
    <desc>Created with Sketch.</desc>
    <defs></defs>
    <g id="Homepage" stroke="none" stroke-width="1" fill="none" fill-rule="evenodd">
        <g id="Pricing-Plans" transform="translate(-1201.000000, -713.000000)" fill-rule="nonzero" fill="#FFFFFF">
            <g id="MIDMAIN" transform="translate(0.000000, 387.000000)">
                <g id="Row-1" transform="translate(45.000000, 293.000000)">
                    <g id="PP-4" transform="translate(1028.000000, 0.000000)">
                        <g id="hiking" transform="translate(128.000000, 33.000000)">
                            <path d="M12.5985718,13.9243487 L13.9888458,14.2054108 C14.0538026,14.2189378 14.1187592,14.2249499 14.1827088,14.2249499 C14.6328735,14.2249499 15.0357056,13.9108217 15.1288604,13.4549098 C15.2356109,12.9338677 14.897232,12.4263527 14.3740539,12.3206413 L12.9837799,12.0390782 C12.4606017,11.9333668 11.9500122,12.269539 11.8437652,12.7900801 C11.7375184,13.3106212 12.0753936,13.8186373 12.5985718,13.9243487 Z" id="Shape"></path>
                            <path d="M65.0332031,21.2845691 L60.7042694,21.2845691 C60.4479676,21.2845691 60.2022401,21.3857716 60.0209656,21.5666333 L55.8652496,25.7014028 C55.4875946,26.0771542 55.4875946,26.6858717 55.8652496,27.0616233 C56.2424012,27.4373747 56.8547059,27.4373747 57.2323608,27.0616233 L61.1050873,23.2084168 L64.0664063,23.2084168 L64.0664063,62.9343687 C64.0664063,63.4654308 64.4989472,63.8962926 65.0332031,63.8962926 C65.5669556,63.8962926 66,63.4654308 66,62.9343687 L66,22.246493 C66,21.7154309 65.5674591,21.2845691 65.0332031,21.2845691 Z" id="Shape"></path>
                            <path d="M54.1647949,30.1137275 C54.54245,29.7379759 54.54245,29.1292586 54.1647949,28.753507 C53.7871398,28.3777554 53.1748351,28.3777554 52.7976837,28.753507 L50.1359711,31.4013026 L48.4732818,18.6137274 L48.6026916,18.5916833 C49.5493469,18.4333667 50.3182525,17.734469 50.5624695,16.8106212 L51.0317687,15.0335672 C51.2437592,14.231463 51.0342865,13.3862726 50.4718322,12.7735471 C49.909378,12.1613226 49.0825653,11.8777555 48.2602844,12.0155311 L47.6293487,12.1207415 L47.5638886,11.6187375 C49.2729034,11.3231463 50.4602509,10.3456913 50.4602509,9.11623246 C50.4602509,7.63677358 48.7416688,6.52154305 46.4626465,6.52154305 C44.1836242,6.52154305 42.4650421,7.63677358 42.4650421,9.11623246 C42.4650421,10.4068136 43.7727355,11.4198396 45.6192169,11.6578156 L45.720932,12.4403808 L45.2073212,12.526052 C44.356842,12.6688377 43.6110992,13.1272544 43.1025238,13.8181362 C42.8729096,13.7830662 42.6387635,13.7745492 42.4056244,13.7950902 L28.0658111,15.0766533 C27.9449615,14.6908818 27.7848358,14.3166333 27.5879517,13.9589179 C28.68013,13.4639278 29.6378632,12.7044089 30.3815918,11.7249499 C31.4501037,10.3181363 31.9581757,8.61222451 31.8428651,6.87074142 C31.9672393,6.81613223 32.0911103,6.76152305 32.2169952,6.70340681 C32.7014008,6.47995998 32.9118805,5.90781563 32.686798,5.42585177 C32.4692687,4.95991984 31.9244385,4.74999997 31.4506073,4.93937879 C30.3256988,1.734469 27.0456391,-0.351202373 23.5389862,0.134268537 C21.9996642,0.347194357 20.6013336,1.02655307 19.5005951,2.07565133 C19.3465118,2.02154312 19.1894073,1.97545093 19.0272675,1.94238474 L13.255188,0.774549034 C11.3120269,0.381763463 9.40965274,1.6342686 9.01437384,3.56763524 C8.8230285,4.50450905 9.00933838,5.45891784 9.53956601,6.25601206 C9.68106073,6.46843691 9.84269718,6.66232459 10.0209503,6.83667341 C8.72282413,7.92635267 7.81745907,9.42384763 7.47303769,11.1082164 L5.55052188,20.513527 L4.6904755,21.528056 C4.49459845,21.7590181 4.34051514,22.017034 4.22822568,22.2925852 C4.19448846,22.2985972 4.16075138,22.3046092 4.12701416,22.3121243 C3.26898193,22.4979959 2.53532413,23.0055111 2.06098935,23.740982 L0.38873291,26.3331663 C-0.061935457,27.0315632 -0.124374422,27.8992986 0.220550602,28.6548097 C0.565475496,29.4098197 1.26438907,29.9333668 2.08918759,30.0551103 C2.08918759,30.0551103 4.15420526,30.3496993 4.2725372,30.3496993 C5.0963287,30.3496993 5.87882999,29.9333668 6.33201602,29.2304609 L6.56465146,28.8707414 C7.73034668,30.8897796 9.52294922,32.4634268 11.6977387,33.3582165 L9.83363339,40.5966934 C9.70120233,41.1117235 10.0128936,41.6357715 10.5305328,41.7675351 C10.6110992,41.7880761 10.6916656,41.7975952 10.771225,41.7975952 C11.2017518,41.7975952 11.5950165,41.509018 11.7068023,41.0741483 L14.192276,31.4213427 L16.9209595,31.722445 L11.2838287,52.2535069 C10.9016418,52.0736473 10.5078735,51.9143286 10.1030273,51.7805611 L9.0405578,51.4298598 L10.6131134,45.3226453 C10.7455444,44.8081162 10.4333496,44.2840682 9.91621396,44.1518036 C9.3990783,44.0205411 8.87237549,44.3306613 8.73994443,44.8451904 L7.01481632,51.5450902 C6.54803467,51.8141282 6.19857795,52.2364729 6.0273742,52.7505009 L5.32795712,54.8476954 C4.94476318,55.997996 5.57318115,57.243988 6.72880557,57.6257515 L7.03747559,57.7274549 L6.29576114,58.4654308 C6.11448673,58.6457916 6.01277157,58.8902805 6.01277157,59.1457916 L6.01277157,62.9343687 C6.01277157,63.4654308 6.4453125,63.8962926 6.97956845,63.8962926 C7.51332089,63.8962926 7.94636532,63.4654308 7.94636532,62.9343687 L7.94636532,59.5440881 L9.09091193,58.4053106 L9.76968377,58.6292585 C9.74803165,58.7094188 9.73544318,58.7935872 9.73544318,58.8807616 C9.73544318,59.4123247 10.167984,59.8426854 10.7022401,59.8426854 L20.2559052,59.8426854 C20.7901611,59.8426854 21.2227021,59.4123247 21.2227021,58.8807616 C21.2227021,58.3496993 20.7901611,57.9188377 20.2559052,57.9188377 L16.1082459,57.9188377 C16.2024078,57.3857716 16.1057281,56.8251503 15.8091431,56.3321644 C15.2376251,55.3827655 14.5225982,54.5380761 13.6967926,53.8221443 L20.623993,46.9293587 L28.8407593,46.9293587 C29.0970611,46.9293587 29.3427887,46.8281563 29.5240631,46.6477956 L36.3258819,39.8802605 L42.9811707,39.8802605 L42.9811707,48.6402806 C42.9811707,49.1713426 43.4137115,49.6022045 43.9479676,49.6022045 C44.4817199,49.6022045 44.9147645,49.1713426 44.9147645,48.6402806 L44.9147645,39.3171342 L54.1647949,30.1137275 Z M44.4016571,9.11673343 C44.4837342,8.91983968 45.1997681,8.44539075 46.4626465,8.44539075 C47.7255249,8.44539075 48.4415588,8.91983968 48.5236358,9.11673343 C48.4415588,9.31312622 47.7255249,9.78757515 46.4626465,9.78757515 C45.1997681,9.78757515 44.4837342,9.31312622 44.4016571,9.11673343 Z M44.6499023,14.9709418 C44.8598785,14.6778557 45.1715698,14.4834669 45.5280762,14.4233467 L48.5810395,13.9128256 C48.6127625,13.9073147 48.6424713,13.9048096 48.671173,13.9048096 C48.8675537,13.9048096 48.9949493,14.0175351 49.0442963,14.0711423 C49.1006928,14.1327655 49.2255707,14.3026052 49.1616211,14.5445892 L48.6923218,16.3216432 C48.6409608,16.5150301 48.4798279,16.6613226 48.2814331,16.6943887 L45.9772339,17.0801603 C45.2410584,17.2029058 44.5411377,16.7079158 44.4177704,15.9754509 C44.3578491,15.6207415 44.4404297,15.2640281 44.6499023,14.9709418 Z M42.4655457,15.7219439 C42.4640351,15.9118236 42.4786377,16.1032065 42.5108643,16.2945892 C42.5874023,16.745992 42.7560883,17.1588176 42.9912414,17.5210421 C42.9459229,17.5375751 42.9001007,17.5521041 42.852768,17.5616232 C42.8185273,17.5686373 42.7827759,17.5736473 42.7470245,17.5771543 L28.0220031,18.8927856 L28.1282501,18.4764529 C28.2626953,17.983467 28.3331909,17.482465 28.3417511,16.983467 L42.4655457,15.7219439 Z M28.8387451,10.5651303 C27.9731598,11.7059118 26.7122955,12.4423848 25.2897949,12.6397795 C25.039032,12.6743486 24.7902832,12.6913828 24.5440522,12.6913828 C21.9049988,12.6908818 19.594757,10.751002 19.2206269,8.07765534 C19.1758117,7.758016 19.1617127,7.43937873 19.1737977,7.12324643 C20.3606415,7.73947896 22.2957459,8.45541079 24.8854522,8.45541079 C26.3578033,8.45541079 28.0426483,8.22194392 29.9198456,7.60871747 C29.867981,8.67284572 29.4983826,9.69689382 28.8387451,10.5651303 Z M23.8058624,2.03957919 C24.0566254,2.00500996 24.3048706,1.98797595 24.5511017,1.98797595 C26.8709106,1.98797595 28.9354248,3.48697395 29.6559906,5.66482969 C24.4206848,7.47895792 20.9079894,5.92885765 19.6305084,5.17034068 C19.7966767,4.80010017 20.0046387,4.44539075 20.2564087,4.11372749 C21.1224976,2.97344693 22.3828583,2.23647295 23.8058624,2.03957919 Z M10.9091949,3.95140284 C11.09198,3.05761526 11.9716645,2.47795585 12.8699799,2.65981961 L18.1959229,3.73797592 C17.6324615,4.7169339 17.3081817,5.80210418 17.2462463,6.92184369 L12.2073212,5.90230458 C11.3085021,5.72044082 10.72641,4.84519041 10.9091949,3.95140284 Z M9.36785889,11.4919839 C9.68106073,9.9584168 10.6171417,8.63126253 11.9505157,7.81362725 L17.4114074,8.91883761 C17.6556244,10.0140281 18.1425477,11.004008 18.8067169,11.8401803 C17.9879608,12.3882766 17.3157349,13.1247495 16.8449249,13.998497 L12.7692719,14.6392786 L12.4646301,14.5776553 C12.1443787,14.5125251 11.8291626,14.6142284 11.6081085,14.8216433 L11.2425385,14.8792585 C10.5602417,14.9864729 9.93887323,15.3351703 9.49374396,15.8607214 L8.15080264,17.4448898 L9.36785889,11.4919839 Z M4.19851678,28.4208417 L2.37217716,28.1518036 C2.1229248,28.1152305 2.01567081,27.9343687 1.98092658,27.8582164 C1.94618222,27.7825652 1.87971493,27.5831663 2.01617432,27.3722445 L3.68792725,24.7800601 C3.88330078,24.4769539 4.1854248,24.2680361 4.53890998,24.1913828 C4.63558966,24.1703407 4.73327637,24.1598197 4.82995605,24.1598197 C5.0862579,24.1598197 5.33752441,24.2329659 5.55857852,24.3737474 C5.86322021,24.5681363 6.07319638,24.8687375 6.1502381,25.2204409 C6.2272797,25.5716433 6.16232306,25.9323647 5.9669494,26.2349699 L4.70457462,28.1913828 C4.59631348,28.3602205 4.39741513,28.4498997 4.19851678,28.4208417 Z M7.77012638,26.9654309 C7.92874139,26.6497996 8.03347772,26.3146293 8.08282471,25.9704408 C8.46652228,25.7975952 8.81044003,25.5410822 9.08637997,25.2149298 L9.57733154,24.6362726 C9.80895996,26.6217435 10.7823028,28.4859719 12.3372345,29.8116232 L12.2606964,30.0896794 C12.1937256,30.3351703 12.2274628,30.5956914 12.3523407,30.8151303 L12.1831513,31.4714429 C10.199707,30.5806614 8.63218692,28.98497 7.77012638,26.9654309 Z M12.9233551,27.6793587 C11.7198944,26.273547 11.199234,24.3642285 11.5773926,22.5120241 L11.6413422,22.2004008 L13.198288,20.3632264 L15.0120392,20.0781563 L12.9233551,27.6793587 Z M14.1499786,57.3206413 C14.2728424,57.5245491 14.1837158,57.6888778 14.1197662,57.768537 C14.0553131,57.8481964 13.9138184,57.9704408 13.6872254,57.8952906 L7.33808896,55.7995992 C7.19407657,55.752004 7.11552432,55.5966934 7.16336053,55.4534068 L7.86277774,53.3567134 C7.89248651,53.267535 7.95391846,53.2209419 8.00024414,53.1978958 C8.04656982,53.1748497 8.12109375,53.1538076 8.2102203,53.1828657 L9.49424747,53.6067135 C11.4419403,54.25 13.0955658,55.5686373 14.1499786,57.3206413 Z M20.2236786,45.006012 C19.9673768,45.006012 19.7216492,45.1072144 19.5403748,45.2880762 L13.5699005,51.2279559 L17.4884491,36.9554109 L26.8613434,35.9448897 L24.4649963,44.743487 C24.4383087,44.8306613 24.4156494,44.9183366 24.3965148,45.006012 L20.2236786,45.006012 Z M26.3970795,45.006012 L29.0975646,35.0881764 C29.1811523,34.7815631 29.1071319,34.4534068 28.8996734,34.2119239 C28.6917114,33.9704408 28.3780059,33.8461924 28.0602723,33.8802605 L18.0363007,34.9614229 L18.8661347,31.9373748 C18.8661347,31.9373748 22.0621033,32.2830661 22.1753998,32.2830661 C23.1578065,32.2830661 24.071228,31.8151303 24.6538238,31.0626252 L30.7652892,30.5270541 C31.157547,30.492986 31.5296631,30.6447896 31.7844543,30.9438878 C32.0392456,31.2429859 32.1288758,31.6322645 32.0291748,32.0180361 L28.8639221,44.5846694 L28.4399414,45.006012 L26.3970795,45.006012 Z M35.9255676,37.9569138 C35.6687622,37.9569138 35.4230347,38.0581162 35.2417603,38.238477 L31.5236206,41.9378758 L33.9033508,32.491984 C34.1566314,31.5140281 33.9159394,30.4699398 33.2593232,29.6993988 C32.6027069,28.9293587 31.6067047,28.5225451 30.5960998,28.6107215 L25.4272613,29.0636273 L25.8598022,27.3672344 C25.9912262,26.8522044 25.6780243,26.3286573 25.1608887,26.1983968 C24.643753,26.0676353 24.1170502,26.3792585 23.9856262,26.8937876 L23.3290099,29.4684369 C23.1839904,30.0370741 22.631607,30.4173346 22.0469971,30.3522044 L14.424408,29.511523 L17.1067657,19.748998 L20.1506652,19.2705411 C20.6778717,19.1878758 21.0379028,18.6948898 20.9548188,18.1703407 C20.871231,17.6452906 20.3767548,17.2880762 19.8485412,17.3702405 L12.5406646,18.5190381 C12.3110504,18.5551102 12.1020812,18.6723448 11.9525299,18.8491984 L7.68351749,23.8857715 C7.42419434,23.4323648 7.05711368,23.0445891 6.6029205,22.754509 C6.51026913,22.6953908 6.4151001,22.6412826 6.3179169,22.5916833 L10.9716339,17.1007014 C11.1176606,16.9288578 11.3210907,16.8146292 11.5446625,16.7795591 L19.5549774,15.5205411 C20.0821838,15.4373747 20.4422149,14.9448898 20.3591309,14.4198397 C20.2956848,14.0195391 19.9915467,13.7169339 19.6169129,13.6322645 C19.8132935,13.4769539 20.0242768,13.3386774 20.2483521,13.2189378 C21.4684296,14.1027054 22.9619293,14.6152305 24.543045,14.6152305 C24.8773956,14.6152305 25.2157745,14.5921844 25.5566711,14.5450902 C25.5954438,14.5395791 25.6337128,14.5320642 25.6729889,14.526052 C26.3663635,15.5300602 26.5874176,16.7885772 26.2606201,17.9779559 C26.2591095,17.9839679 26.2575988,17.989479 26.2565918,17.99499 L25.0712586,22.6407816 C24.9398346,23.1558117 25.252533,23.6788577 25.7701721,23.8096192 C25.850235,23.8301603 25.9302979,23.8396794 26.0088501,23.8396794 C26.4408875,23.8396794 26.8341523,23.5495992 26.9454346,23.1142285 L27.5179596,20.8692385 L42.9197388,19.492986 C43.0264893,19.4834669 43.1332397,19.4679358 43.2379761,19.4468938 C43.7279205,19.3476953 44.1811065,19.1187374 44.5542297,18.7945891 C44.9293671,18.9413828 45.3337098,19.023046 45.7516479,19.023046 C45.9319152,19.023046 46.1147003,19.008517 46.2984924,18.9774549 L46.5653687,18.9328658 L48.4098358,33.1192384 L43.5476532,37.9569138 L35.9255676,37.9569138 Z" id="Shape"></path>
                            <path d="M31.812149,51.3667335 L27.2848205,51.3667335 C26.7510682,51.3667335 26.3180236,51.7975952 26.3180236,52.3286573 L26.3180236,59.254509 C26.3180236,59.7855711 26.7510682,60.2164329 27.2848205,60.2164329 C27.8185731,60.2164329 28.2516174,59.7855711 28.2516174,59.254509 L28.2516174,53.2905812 L31.812149,53.2905812 C32.3464051,53.2905812 32.7789459,52.8597194 32.7789459,52.3286573 C32.7789459,51.7975952 32.3464051,51.3667335 31.812149,51.3667335 Z" id="Shape"></path>
                            <path d="M41.0581513,54.5966934 L41.0440522,54.5966934 L41.035492,54.5966934 C40.5052643,54.5966934 40.073227,55.0215431 40.0686951,55.5495992 C40.0641632,56.0811623 40.4931793,56.515531 41.0269317,56.5200401 L41.0410309,56.5205411 L41.049591,56.5205411 C41.5793153,56.5205411 42.0113525,56.0951904 42.0163879,55.5671343 C42.0209198,55.0355712 41.5919037,54.6012024 41.0581513,54.5966934 Z" id="Shape"></path>
                            <path d="M60.0295258,41.2079159 L60.0385894,41.2079159 C60.5683136,41.2079159 61.000351,40.7830662 61.0048828,40.25501 C61.0099181,39.7234469 60.5809022,39.2890781 60.0466461,39.2845691 L60.032547,39.2840682 C59.4942627,39.2760521 59.0622254,39.7064129 59.0576934,40.2374749 C59.0526581,40.7690381 59.4816742,41.2034067 60.0154267,41.2079159 L60.0295258,41.2079159 Z" id="Shape"></path>
                            <path d="M23.9075775,51.5295591 L23.8934784,51.5290581 L23.8844146,51.5290581 C23.3546905,51.5290581 22.9226532,51.9544088 22.9181213,52.482465 C22.9130859,53.0140281 23.3421021,53.4483968 23.8758545,53.4529058 L23.8899536,53.4534068 L23.8990174,53.4534068 C24.4287414,53.4534068 24.8607788,53.0280561 24.8653106,52.5000001 C24.8703461,51.9684368 24.44133,51.5340682 23.9075775,51.5295591 Z" id="Shape"></path>
                            <path d="M19.6174164,54.5966934 L19.6088563,54.5966934 C19.079132,54.5966934 18.6470947,55.0215431 18.6425629,55.5495992 C18.6375274,56.0811623 19.0665435,56.515531 19.600296,56.5200401 L19.6143951,56.5205411 L19.6234589,56.5205411 C20.153183,56.5205411 20.5852203,56.0951904 20.5897521,55.5671343 C20.5947876,55.0355712 20.1657715,54.6012024 19.6315155,54.5966934 L19.6174164,54.5966934 Z" id="Shape"></path>
                            <path d="M59.4675751,42.6162325 L51.4612885,42.6162325 C49.7719116,42.6162325 48.3967437,43.9839679 48.3967437,45.6648297 C48.3967437,47.1337676 49.4461212,48.3627255 50.8374023,48.6503005 L50.8374023,55.1282565 C50.8374023,55.6593186 51.2699433,56.0901804 51.8041992,56.0901804 C52.3379517,56.0901804 52.7709961,55.6593186 52.7709961,55.1282565 L52.7709961,48.7139278 L58.0299683,48.7139278 L58.0299683,62.9343687 C58.0299683,63.4654308 58.4625092,63.8962926 58.9967651,63.8962926 C59.5305176,63.8962926 59.963562,63.4654308 59.963562,62.9343687 L59.963562,48.6733467 C61.4182892,48.4368737 62.5321197,47.1783567 62.5321197,45.6648297 C62.5321197,43.9839679 61.1574555,42.6162325 59.4675751,42.6162325 L59.4675751,42.6162325 Z M59.4675751,46.7900801 L51.4612885,46.7900801 C50.8379059,46.7900801 50.3303375,46.2850701 50.3303375,45.6648297 C50.3303375,45.0445891 50.8379059,44.5395791 51.4612885,44.5395791 L59.4675751,44.5395791 C60.0914611,44.5395791 60.598526,45.0445891 60.598526,45.6648297 C60.598526,46.2850701 60.0914611,46.7900801 59.4675751,46.7900801 Z" id="Shape"></path>
                            <path d="M37.7700348,46.6147295 L32.9284972,46.6147295 C32.3947449,46.6147295 31.9617004,47.0455912 31.9617004,47.5766533 C31.9617004,48.1082164 32.3947449,48.5385772 32.9284972,48.5385772 L36.8032379,48.5385772 L36.8032379,50.4373747 C36.8032379,50.9689379 37.2362823,51.3992986 37.7700348,51.3992986 C38.3037872,51.3992986 38.7368316,50.9689379 38.7368316,50.4373747 L38.7368316,47.5766533 C38.7368316,47.0455912 38.3037872,46.6147295 37.7700348,46.6147295 Z" id="Shape"></path>
                        </g>
                    </g>
                </g>
            </g>
        </g>
    </g>
</svg>