<?xml version="1.0" encoding="UTF-8"?>
<svg width="36px" height="68px" viewBox="0 0 36 68" version="1.1" xmlns="http://www.w3.org/2000/svg" xmlns:xlink="http://www.w3.org/1999/xlink">
    <!-- Generator: Sketch 43.1 (39012) - http://www.bohemiancoding.com/sketch -->
    <title>flash</title>
    <desc>Created with Sketch.</desc>
    <defs></defs>
    <g id="Homepage" stroke="none" stroke-width="1" fill="none" fill-rule="evenodd">
        <g id="Pricing-Plans" transform="translate(-874.000000, -712.000000)" fill-rule="nonzero" fill="#FFFFFF">
            <g id="MIDMAIN" transform="translate(0.000000, 387.000000)">
                <g id="Row-1" transform="translate(45.000000, 293.000000)">
                    <g id="PP-3" transform="translate(685.333333, 0.000000)">
                        <g id="flash" transform="translate(144.000000, 32.000000)">
                            <path d="M34.8232765,28.1292891 C34.5903409,27.6819766 34.128447,27.4017422 33.6246591,27.4017422 L21.9214015,27.4017422 L29.0181818,1.7159375 C29.1308712,1.30807031 29.0468182,0.870984375 28.7912121,0.534304687 C28.5354735,0.197625 28.1373485,0 27.7150947,0 L11.8436553,0 C11.2357955,0 10.7027083,0.40640625 10.5405682,0.993171875 L0.0721212121,38.8820547 C-0.0405681818,39.2899219 0.0434848485,39.7270078 0.299090909,40.0636875 C0.554829545,40.4005 0.952689394,40.598125 1.37520833,40.598125 L13.0784659,40.598125 L5.98168561,66.2839297 C5.80589015,66.9203672 6.11346591,67.5906719 6.70992424,67.8713047 C6.89473485,67.9582969 7.09054924,68 7.28424242,68 C7.71511364,68 8.13458333,67.7933438 8.39456439,67.4194766 L34.7344508,29.5305938 C35.0222727,29.1163516 35.0563447,28.5766016 34.8232765,28.1292891 Z M10.6999242,59.3624063 L16.1588636,39.6049531 C16.271553,39.1970859 16.1875,38.76 15.9318939,38.4233203 C15.6761553,38.0865078 15.2782955,37.8888828 14.8557765,37.8888828 L3.15251894,37.8888828 L12.8724432,2.70910938 L25.9380492,2.70910938 L18.8410038,28.3949141 C18.7283144,28.8027813 18.8123674,29.2398672 19.0679735,29.5765469 C19.3238447,29.9133594 19.7218371,30.1109844 20.1440909,30.1109844 L31.0350568,30.1109844 L10.6999242,59.3624063 Z" id="Shape"></path>
                            <path d="M18.728447,18.3646484 C18.0096212,18.1635703 17.2632197,18.5844531 17.0625,19.3049609 L16.8738447,19.981375 C16.6729924,20.7018828 17.0932576,21.4492188 17.8124811,21.6502969 C17.934053,21.6842969 18.0564205,21.7005 18.1769318,21.7005 C18.7683523,21.7005 19.3115152,21.3085703 19.4785606,20.7098516 L19.6672159,20.0334375 C19.8680682,19.3131953 19.4476705,18.5658594 18.728447,18.3646484 Z" id="Shape"></path>
                            <path d="M22.731572,4.00535938 C22.0128788,3.8048125 21.2663447,4.22516406 21.065625,4.94567188 L18.1954924,15.2406328 C17.9945076,15.9611406 18.4149053,16.7083438 19.1341288,16.9095547 C19.2557008,16.9435547 19.3780682,16.9597578 19.4985795,16.9597578 C20.09,16.9597578 20.6332955,16.5678281 20.8002083,15.9691094 L23.6703409,5.67414844 C23.8711932,4.95377344 23.4507955,4.20670313 22.731572,4.00535938 Z" id="Shape"></path>
                        </g>
                    </g>
                </g>
            </g>
        </g>
    </g>
</svg>