<?xml version="1.0" encoding="UTF-8"?>
<svg width="66px" height="63px" viewBox="0 0 66 63" version="1.1" xmlns="http://www.w3.org/2000/svg" xmlns:xlink="http://www.w3.org/1999/xlink">
    <!-- Generator: Sketch 43.1 (39012) - http://www.bohemiancoding.com/sketch -->
    <title>fireworks</title>
    <desc>Created with Sketch.</desc>
    <defs></defs>
    <g id="Homepage" stroke="none" stroke-width="1" fill="none" fill-rule="evenodd">
        <g id="Pricing-Plans" transform="translate(-173.000000, -716.000000)" fill-rule="nonzero" fill="#FFFFFF">
            <g id="MIDMAIN" transform="translate(0.000000, 387.000000)">
                <g id="Row-1" transform="translate(45.000000, 293.000000)">
                    <g id="PP-1">
                        <g id="fireworks" transform="translate(128.000000, 36.000000)">
                            <path d="M27.7460994,1.4250846 C27.6509938,0.752583514 28.1190062,0.130099783 28.791441,0.0351214751 C29.4649689,-0.0606767896 30.0862981,0.408065076 30.1814037,1.08070282 L32.128882,14.8505076 C32.2239876,15.5230087 31.7559752,16.1454924 31.0835404,16.2404707 C31.0250559,16.2488069 30.9669814,16.2527701 30.9097267,16.2527701 C30.3068447,16.2527701 29.7804845,15.8091735 29.6937143,15.1948894 L27.7460994,1.4250846 Z M60.1652174,6.1342321 L59.2022733,7.09713449 C58.7219627,7.57749241 58.7219627,8.35617787 59.2022733,8.83653579 C59.6827205,9.31689371 60.4611925,9.31675705 60.9416398,8.83653579 L61.9044472,7.87363341 L62.867118,8.83653579 C63.1073416,9.07678308 63.4220373,9.19677007 63.7367329,9.19677007 C64.0514286,9.19677007 64.3661242,9.07664642 64.6063478,8.83653579 C65.0866584,8.35617787 65.0866584,7.57749241 64.6063478,7.09713449 L63.6435404,6.1342321 L64.6067578,5.17091974 C65.0870683,4.69056182 65.0870683,3.91187636 64.6067578,3.43151844 C64.1263106,2.95102386 63.3478385,2.95116052 62.8673913,3.43151844 L61.9043106,4.39469414 L60.9412298,3.43151844 C60.4609193,2.95116052 59.6824472,2.95116052 59.2018634,3.43151844 C58.7215528,3.91187636 58.7215528,4.69056182 59.2018634,5.17091974 L60.1652174,6.1342321 Z M24.4798509,22.1109501 C24.7219876,22.4270434 25.0873789,22.5929479 25.4570062,22.5929479 C25.7178634,22.5929479 25.9809068,22.510269 26.2040497,22.339308 C26.743118,21.9261866 26.8453292,21.1541974 26.4323851,20.6149393 L15.5757267,6.44294577 C15.162646,5.9038243 14.3907329,5.80160304 13.851528,6.21458785 C13.3124596,6.62770933 13.2102484,7.39969848 13.6231925,7.93895662 L24.4798509,22.1109501 Z M4.29437267,10.6233579 L4.70144099,10.936308 C4.92485714,11.1079523 5.18831056,11.1910412 5.44985093,11.1910412 C5.81879503,11.1910412 6.1837764,11.0256833 6.42604969,10.71041 C6.83981366,10.1718351 6.73869565,9.39957267 6.20017391,8.9857679 L5.79310559,8.67281779 C5.25431056,8.2587397 4.48226087,8.36000434 4.06863354,8.89857918 C3.65459627,9.43729067 3.75585093,10.2095531 4.29437267,10.6233579 Z M3.25545342,25.867308 C2.58219876,25.7776594 1.96387578,26.251731 1.87478261,26.9250521 C1.78568944,27.5985098 2.2591677,28.2166204 2.93242236,28.305859 L15.5097267,29.9713275 C15.5645217,29.9785705 15.6190435,29.9821236 15.6727453,29.9821236 C16.2801366,29.9821236 16.8084099,29.5321041 16.8902609,28.9135835 C16.979354,28.2401258 16.5058758,27.6220152 15.8326211,27.5327766 L3.25545342,25.867308 Z M8.30329193,13.7050282 L20.257764,22.8931887 C20.4811801,23.064833 20.7446335,23.1479219 21.0063106,23.1479219 C21.3752547,23.1479219 21.7400994,22.982564 21.9823727,22.6674273 C22.3962733,22.1288525 22.2952919,21.35659 21.7567702,20.9426486 L9.80216149,11.7546247 C9.2637764,11.34082 8.49159006,11.4418113 8.07768944,11.9803861 C7.66365217,12.518961 7.76463354,13.2910868 8.30329193,13.7050282 Z M34.7530311,16.3683839 C34.8091925,16.3760369 34.8648075,16.3797267 34.9200124,16.3797267 C35.525764,16.3797267 36.053354,15.9320304 36.1369814,15.3148764 L38.020646,1.4257679 C38.1120621,0.752720174 37.6403602,0.132969631 36.9673789,0.041681128 C36.2930311,-0.0496073753 35.6748447,0.422004338 35.5834286,1.09518872 L33.699764,14.9842972 C33.6084845,15.6574816 34.0801863,16.2770954 34.7530311,16.3683839 Z M62.7888199,33.7509176 L45.9213789,31.5172191 C45.2485342,31.4288004 44.6299379,31.9015054 44.5407081,32.5750998 C44.4516149,33.2484208 44.9250932,33.8666681 45.5983478,33.9557701 L62.4657888,36.1894685 C62.5205839,36.1967115 62.5749689,36.2002646 62.6288075,36.2002646 C63.2360621,36.2002646 63.764472,35.7502451 63.846323,35.1317245 C63.9356894,34.4582668 63.4622112,33.8401562 62.7888199,33.7509176 Z M63.852472,26.9713796 C63.7643354,26.2977852 63.146559,25.8237137 62.473441,25.911449 L49.8182484,27.5681714 C49.1447205,27.6563167 48.6702857,28.2738807 48.7584224,28.9473384 C48.8394534,29.5668156 49.368,30.0177918 49.9762112,30.0177918 C50.0295031,30.0177918 50.083205,30.0143753 50.1374534,30.007269 L62.792646,28.3505466 C63.4661739,28.2624013 63.9407453,27.644974 63.852472,26.9713796 Z M55.9477764,11.7890629 L44.0414037,20.9120369 C43.5023354,21.3251584 43.4001242,22.0971475 43.8130683,22.6364056 C44.055205,22.9524989 44.4205963,23.1184035 44.7902236,23.1184035 C45.0510807,23.1184035 45.3141242,23.0357245 45.5372671,22.8647636 L57.4436398,13.7417896 C57.9827081,13.3286681 58.0849193,12.556679 57.6719752,12.0174208 C57.2588944,11.4781627 56.4869814,11.3759414 55.9477764,11.7890629 Z M52.6584348,5.24881562 C52.8819876,5.42073319 53.1455776,5.50395879 53.4072547,5.50395879 C53.7760621,5.50395879 54.1407702,5.33873753 54.3830435,5.02387419 L54.4915404,4.88284165 C54.9055776,4.34440347 54.8048696,3.572141 54.2666211,3.15806291 C53.7279627,2.74384816 52.955913,2.84470282 52.5420124,3.38300434 L52.4335155,3.52403688 C52.0193416,4.06261171 52.1200497,4.83473753 52.6584348,5.24881562 Z M54.8475031,2.3983731 C55.0710559,2.57042733 55.3347826,2.65378959 55.5965963,2.65378959 C55.9652671,2.65378959 56.3298385,2.48870499 56.5721118,2.17397831 L56.6867578,2.02501952 C57.1010683,1.486718 57.0006335,0.714455531 56.4622484,0.300104121 C55.924,-0.114247289 55.1518137,-0.0136659436 54.7376398,0.524498915 L54.6229938,0.673457701 C54.2086832,1.21189588 54.3092547,1.98415835 54.8475031,2.3983731 Z M39.5930311,22.2671518 C39.8164472,22.4387961 40.0799006,22.521885 40.3415776,22.521885 C40.7105217,22.521885 41.0755031,22.3565271 41.3176398,22.0413905 L52.1324845,7.96751844 C52.5463851,7.4289436 52.4452671,6.65668113 51.906882,6.2427397 C51.3684969,5.82893492 50.5961739,5.92992625 50.1824099,6.46850108 L39.3675652,20.5423731 C38.953528,21.0810846 39.0545093,21.8533471 39.5930311,22.2671518 Z M2.41890683,7.62942299 C2.83253416,7.0907115 2.7312795,6.31858568 2.19275776,5.90478091 L1.97904348,5.74051627 C1.44024845,5.3267115 0.668335404,5.4281128 0.254571429,5.96668764 C-0.159055901,6.50539913 -0.0578012422,7.27752495 0.480720497,7.69132972 L0.694434783,7.85559436 C0.917850932,8.02710195 1.18130435,8.11019089 1.44270807,8.11019089 C1.81178882,8.11019089 2.17677019,7.94469631 2.41890683,7.62942299 Z M40.7057391,40.6016551 C40.8274907,41.094449 40.6341366,41.6114317 40.2188696,41.9030629 C39.8036025,42.1949675 39.2520994,42.2016638 38.8295901,41.9200087 L33.0687329,38.078102 L26.8591304,41.9410542 C26.6596273,42.065141 26.4342981,42.1266377 26.2096522,42.1266377 C25.9489317,42.1266377 25.6888944,42.0439588 25.4710807,41.8801041 C25.0652422,41.5753536 24.8882857,41.0524946 25.0256149,40.5639371 L26.8988944,33.8972798 L21.3066584,29.1848525 C20.9184472,28.8578265 20.7711429,28.3259479 20.935528,27.8458633 C21.1000497,27.3656421 21.5423727,27.0358829 22.0496025,27.0153839 L28.9682609,26.7370087 L31.7215404,19.9615705 C31.9127081,19.491462 32.3710186,19.1891714 32.8802981,19.1949111 C33.3878012,19.202974 33.8381863,19.5219371 34.0141863,19.9979219 L36.4166957,26.4925249 L43.7108571,27.0175705 C44.2169938,27.0540586 44.648795,27.3976204 44.7980124,27.882898 C44.9472298,28.368039 44.783118,28.8949978 44.384795,29.2095879 L38.9509317,33.5016508 L40.7057391,40.6016551 Z M36.8047702,32.0623536 L40.3732795,29.2436161 L35.4499255,28.8891215 C34.968795,28.8545466 34.5522981,28.5417332 34.3849068,28.0891171 L32.8069193,23.8238395 L30.9483975,28.3972842 C30.766795,28.8442972 30.3405963,29.143718 29.8583727,29.1631236 L25.3146211,29.345974 L29.0893292,32.526859 C29.4582733,32.8377592 29.6113168,33.3357462 29.4808199,33.8002516 L28.2504596,38.1786833 L32.4420745,35.5710846 C32.8516025,35.3162148 33.3724969,35.3244143 33.7739627,35.5921302 L37.5574161,38.1152733 L36.3729689,33.3227636 C36.2573665,32.854295 36.4261242,32.3613644 36.8047702,32.0623536 Z M57.1520373,60.7166941 C56.7386832,60.1775727 55.9667702,60.0756247 55.4278385,60.4888829 C54.8887702,60.902141 54.7868323,61.6741302 55.2000497,62.2132516 L55.3778261,62.4451627 C55.6199627,62.7611193 55.9852174,62.9268872 56.3547081,62.9268872 C56.6157019,62.9268872 56.878882,62.8440716 57.1020248,62.672974 C57.6410932,62.2597158 57.7430311,61.4877267 57.3298137,60.9486052 L57.1520373,60.7166941 Z M3.2744472,22.3484642 L4.23725466,21.3855618 L5.20006211,22.3484642 C5.44028571,22.5887115 5.75498137,22.7086985 6.06967702,22.7086985 C6.38437267,22.7086985 6.69906832,22.5885748 6.93929193,22.3484642 C7.41960248,21.8681063 7.41960248,21.0894208 6.93929193,20.6090629 L5.97634783,19.6460239 L6.93942857,18.6828482 C7.41973913,18.2024902 7.41973913,17.4238048 6.93942857,16.9434469 C6.45898137,16.4630889 5.68050932,16.4632256 5.20006211,16.9434469 L4.23711801,17.9064859 L3.27417391,16.9434469 C2.79386335,16.4630889 2.0153913,16.4630889 1.53480745,16.9434469 C1.05449689,17.4238048 1.05449689,18.2024902 1.53480745,18.6828482 L2.4978882,19.6460239 L1.5349441,20.6090629 C1.05463354,21.0894208 1.05463354,21.8681063 1.5349441,22.3484642 C2.01552795,22.8288221 2.79413665,22.8288221 3.2744472,22.3484642 Z M54.7862857,57.6266876 L54.6085093,57.3947766 C54.1952919,56.8557918 53.4232422,56.7537072 52.8843106,57.1669653 C52.3452422,57.5802234 52.2433043,58.3522126 52.6565217,58.8913341 L52.8342981,59.1232451 C53.0764348,59.4392017 53.4416894,59.6049696 53.8111801,59.6049696 C54.0721739,59.6049696 54.335354,59.522154 54.5584969,59.3510564 C55.0975652,58.9377983 55.1995031,58.1656725 54.7862857,57.6266876 Z M64.6264348,43.3979805 L65.5895155,42.4348048 C66.0698261,41.9544469 66.0698261,41.1757614 65.5895155,40.6954035 C65.1090683,40.2150456 64.3305963,40.2151822 63.8501491,40.6954035 L62.887205,41.6584425 L61.9241242,40.6952668 C61.443677,40.2149089 60.665205,40.2150456 60.1847578,40.6952668 C59.7044472,41.1756247 59.7044472,41.9543102 60.1847578,42.4346681 L61.1478385,43.3978438 L60.1850311,44.3607462 C59.7047205,44.8411041 59.7047205,45.6197896 60.1850311,46.1001475 C60.6654783,46.5806421 61.4439503,46.5805054 61.9243975,46.1001475 L62.887205,45.1372451 L63.8500124,46.1001475 C64.090236,46.3403948 64.4049317,46.4603818 64.7196273,46.4603818 C65.034323,46.4603818 65.3490186,46.3402581 65.5892422,46.1001475 C66.0695528,45.6197896 66.0695528,44.8411041 65.5892422,44.3607462 L64.6264348,43.3979805 Z M57.4179503,48.3517484 L45.9577267,39.5432278 C45.4193416,39.129423 44.6471553,39.2304143 44.2332547,39.7689892 C43.819354,40.307564 43.9203354,41.0796898 44.4588571,41.4937679 L55.9190807,50.3021518 C56.1424969,50.4739328 56.4059503,50.5570217 56.6676273,50.5570217 C57.0365714,50.5570217 57.4014161,50.3916638 57.6436894,50.0765271 C58.0574534,49.5378156 57.956472,48.7656898 57.4179503,48.3517484 Z M45.9834161,46.1360889 C45.5701988,45.5968308 44.7984224,45.4946095 44.2592174,45.9078677 C43.7201491,46.3209892 43.6179379,47.0929783 44.030882,47.6322364 L50.1455155,55.6139675 C50.3876522,55.9300607 50.7530435,56.0959653 51.1226708,56.0959653 C51.383528,56.0959653 51.6465714,56.0132863 51.8697143,55.8423254 C52.4087826,55.4292039 52.5109938,54.6572148 52.0980497,54.1179566 L45.9834161,46.1360889 Z M21.5332174,39.7076291 C21.1201366,39.1685076 20.3482236,39.0661497 19.8090186,39.4794078 L8.27746584,48.3151236 C7.73839752,48.7282451 7.63618634,49.5002343 8.04913043,50.0394924 C8.29126708,50.3555857 8.65665839,50.5214902 9.02628571,50.5214902 C9.28714286,50.5214902 9.55018634,50.4388113 9.77332919,50.2678503 L21.304882,41.4321345 C21.844087,41.0188764 21.9462981,40.2468872 21.5332174,39.7076291 Z M9.03216149,55.9998937 C8.55185093,55.5195358 7.77324224,55.5195358 7.29293168,55.9998937 L6.32971429,56.9630694 L5.36677019,56.0000304 C4.88632298,55.5196725 4.10785093,55.5196725 3.62740373,56.0000304 C3.14709317,56.4803883 3.14709317,57.2590738 3.62740373,57.7394317 L4.59034783,58.7024707 L3.62754037,59.6653731 C3.14709317,60.145731 3.14709317,60.9244165 3.62740373,61.4047744 C4.10771429,61.8851323 4.88632298,61.8851323 5.36663354,61.4047744 L6.32971429,60.4417354 L7.29252174,61.4046377 C7.53274534,61.6447484 7.84744099,61.764872 8.16213665,61.764872 C8.4768323,61.764872 8.79152795,61.6447484 9.03175155,61.4046377 C9.51206211,60.9242798 9.51206211,60.1455944 9.03175155,59.6652364 L8.0689441,58.7023341 L9.0318882,57.739295 C9.51247205,57.2590738 9.51247205,56.4802516 9.03216149,55.9998937 Z M21.0639752,32.5726399 C20.9758385,31.8990456 20.3560124,31.4253839 19.6849441,31.5127093 L2.92859627,33.7062299 C2.25506832,33.7943753 1.78063354,34.4119393 1.86877019,35.085397 C1.94980124,35.7048742 2.47834783,36.1558503 3.08655901,36.1558503 C3.13985093,36.1558503 3.19368944,36.1524338 3.24780124,36.1453275 L20.0041491,33.9518069 C20.677677,33.8635249 21.1521118,33.2460976 21.0639752,32.5726399 Z M36.1369814,46.9959501 C36.0457019,46.3227657 35.4243727,45.8514273 34.7530311,45.9424425 C34.0800497,46.033731 33.6084845,46.6534816 33.699764,47.3265293 L35.5834286,61.2156377 C35.6670559,61.8327918 36.194646,62.2804881 36.8003975,62.2804881 C36.8554658,62.2804881 36.911354,62.2767983 36.9673789,62.2691453 C37.6403602,62.1778568 38.1120621,61.5581063 38.020646,60.8850586 L36.1369814,46.9959501 Z M31.0835404,46.0704924 C30.4121988,45.9752408 29.7886832,46.443436 29.6935776,47.1160738 L27.7460994,60.8856052 C27.6509938,61.558243 28.1190062,62.18059 28.791441,62.275705 C28.8499255,62.2840412 28.908,62.2880043 28.9652547,62.2880043 C29.568,62.2880043 30.0944969,61.8442711 30.1812671,61.2302603 L32.1287453,47.4605922 C32.2241242,46.7879544 31.7559752,46.1654707 31.0835404,46.0704924 Z M21.4394783,45.8911952 C20.9010932,45.4773905 20.1286335,45.5783818 19.7150062,46.1169566 L13.5888944,54.0891215 C13.1749938,54.6276963 13.2761118,55.3999588 13.8144969,55.8139002 C14.037913,55.9855445 14.3013665,56.0686334 14.5630435,56.0686334 C14.9319876,56.0686334 15.2969689,55.9032755 15.5391056,55.5881388 L21.6652174,47.615974 C22.0789814,47.0772625 21.978,46.3051367 21.4394783,45.8911952 Z" id="XMLID_601_"></path>
                        </g>
                    </g>
                </g>
            </g>
        </g>
    </g>
</svg>