<?xml version="1.0" encoding="UTF-8"?>
<svg width="69px" height="62px" viewBox="0 0 69 62" version="1.1" xmlns="http://www.w3.org/2000/svg" xmlns:xlink="http://www.w3.org/1999/xlink">
    <!-- Generator: Sketch 43.1 (39012) - http://www.bohemiancoding.com/sketch -->
    <title>dragon</title>
    <desc>Created with Sketch.</desc>
    <defs>
        <linearGradient x1="100%" y1="10.3118142%" x2="34.4004235%" y2="73.4736712%" id="linearGradient-1">
            <stop stop-color="#E4773D" offset="0%"></stop>
            <stop stop-color="#8F97A5" offset="100%"></stop>
        </linearGradient>
    </defs>
    <g id="Homepage" stroke="none" stroke-width="1" fill="none" fill-rule="evenodd">
        <g id="Pricing-Plans" transform="translate(-515.000000, -714.000000)" fill-rule="nonzero" fill="#FFFFFF">
            <g id="MIDMAIN" transform="translate(0.000000, 387.000000)">
                <g id="Row-1" transform="translate(45.000000, 293.000000)">
                    <g id="PP-2-Hovered" transform="translate(343.000000, 0.000000)">
                        <g id="dragon" transform="translate(127.000000, 34.000000)">
                            <path d="M24.5073996,45.5158776 L24.5073996,43.18176 L5.83509514,43.18176 C3.90484567,43.18176 2.33403805,41.6108988 2.33403805,39.6805835 C2.33403805,37.7502682 3.90484567,36.1794071 5.83509514,36.1794071 L18.5404313,36.1794071 C20.3107992,36.1794071 21.8512643,34.9259859 22.1243467,33.2640941 C22.2947315,32.2394165 22.0088118,31.2007341 21.342444,30.4164706 C20.6749091,29.6287059 19.7016152,29.1770541 18.6723044,29.1770541 L3.50105708,29.1770541 C2.85686258,29.1770541 2.33403805,28.6542118 2.33403805,28.0099953 L2.33403805,21.0076424 C2.33403805,19.0773271 3.90484567,17.5064659 5.83509514,17.5064659 C7.76534461,17.5064659 9.33615222,19.0773271 9.33615222,21.0076424 L9.33615222,22.1747012 L11.6701903,22.1747012 L11.6701903,21.0076424 C11.6701903,20.6085082 11.6293446,20.2175435 11.5523214,19.8405835 L14.0042283,19.8405835 L14.0042283,22.1747012 L16.3382664,22.1747012 L16.3382664,19.8405835 L18.6723044,19.8405835 L18.6723044,22.1747012 L21.0063425,22.1747012 L21.0063425,19.8405835 L22.8222241,19.8405835 C23.6321353,21.2293835 25.1212516,22.1747012 26.8414376,22.1747012 C29.4158816,22.1747012 31.5095137,20.0809976 31.5095137,17.5064659 C31.5095137,14.9319341 29.4158816,12.8382306 26.8414376,12.8382306 C24.2669937,12.8382306 22.1733615,14.9319341 22.1733615,17.5064659 L10.4728288,17.5064659 C9.40617336,16.0978259 7.73266808,15.1723482 5.83509514,15.1723482 C2.61762368,15.1723482 0,17.7900612 0,21.0076424 L0,28.0099953 C0,29.9403106 1.57080761,31.5111718 3.50105708,31.5111718 L18.6723044,31.5111718 C19.015408,31.5111718 19.3386723,31.6617224 19.56274,31.9243106 C19.7879746,32.1915671 19.8801691,32.5311812 19.8229852,32.8824659 C19.7331247,33.4228141 19.1706216,33.8452894 18.5404313,33.8452894 L5.83509514,33.8452894 C2.61762368,33.8452894 0,36.4630024 0,39.6805835 C0,42.8981647 2.61762368,45.5158776 5.83509514,45.5158776 L24.5073996,45.5158776 Z M26.8414376,15.1723482 C28.1286596,15.1723482 29.1754757,16.2192 29.1754757,17.5064659 C29.1754757,18.7937318 28.1286596,19.8405835 26.8414376,19.8405835 C25.5542156,19.8405835 24.5073996,18.7937318 24.5073996,17.5064659 C24.5073996,16.2192 25.5542156,15.1723482 26.8414376,15.1723482 Z" id="Shape"></path>
                            <path d="M60.2520254,27.9948235 C62.4927019,27.86528 64.5886681,26.9246306 66.2493362,25.2627388 C67.9310106,23.5810071 68.8564567,21.3449224 68.8552896,18.9652894 L68.8529556,16.3394071 L60.8682114,16.3394071 C59.556482,16.3394071 58.3229429,15.8282353 57.3951628,14.9015906 C56.9388584,14.4452706 56.4440423,14.0414682 55.9270529,13.6773459 C58.0113488,13.2887153 60.0279577,12.5581365 61.8788499,11.4996141 C64.7427146,9.86456471 66.5200846,6.79986824 66.5200846,3.50176 L66.5200846,1.88188235 L53.8439239,6.10780235 C52.0607188,6.70183529 50.2063256,7.00293647 48.330926,7.00293647 C48.0648457,7.00293647 47.8477801,6.78586353 47.8477801,6.51977412 C47.8477801,6.39256471 47.899129,6.26768941 47.9889894,6.17782588 L54.1660211,0.000583529412 L51.3488372,0.000583529412 C45.2091501,0.000583529412 39.438241,2.33703529 35.0105708,6.55945412 L35.0105708,1.85153882 L33.0184693,3.84370824 C30.9808541,5.88139294 28.27337,7.00293647 25.392,7.00293647 L23.8235264,7.00293647 C22.447611,7.00293647 21.1545539,7.53861647 20.18126,8.51194353 C19.2079662,9.48527059 18.6723044,10.7783718 18.6723044,12.1543341 L18.6723044,15.1723482 L21.0063425,15.1723482 L21.0063425,12.1543341 C21.0063425,11.4015812 21.2992643,10.6943435 21.8314249,10.1621647 C22.3635856,9.62998588 23.0719662,9.33705412 23.8235264,9.33705412 L25.392,9.33705412 C28.0247949,9.33705412 30.5385539,8.56679529 32.6765328,7.13248 L32.6765328,11.6711718 L35.0105708,11.6711718 L35.0105708,9.82021647 L36.2359408,8.59480471 C39.5502748,5.28035765 43.7597125,3.18898824 48.3192558,2.54593882 L46.3388245,4.52643765 C45.814833,5.05161412 45.5137421,5.77752471 45.5137421,6.51977412 C45.5137421,8.07312941 46.7776237,9.33705412 48.330926,9.33705412 C50.4572347,9.33705412 52.560203,8.99627294 54.5803129,8.32288 L63.973649,5.19166118 C63.5185116,6.97609412 62.3573277,8.53761882 60.721167,9.47243294 C58.205074,10.9114165 55.3423763,11.6711718 52.4435011,11.6711718 L50.1818182,11.6711718 L50.1818182,11.6991812 C49.986926,11.6898447 49.7943679,11.6711718 49.5983087,11.6711718 C46.7391121,11.6711718 44.0514672,12.7588706 41.9916786,14.7276988 C40.5095645,13.5197929 38.6259958,12.8382306 36.7050825,12.8382306 C35.4166934,12.8382306 34.1271374,13.1428329 32.9729556,13.71936 L32.1548753,14.1289976 L33.1993573,16.2168659 L34.0174376,15.8072282 C36.2674503,14.6845176 39.1814968,15.1583435 40.9565328,16.93344 L41.5295391,17.5064659 L40.9565328,18.0794918 C39.1814968,19.8545882 36.2662833,20.3295812 34.0174376,19.2057035 L33.1993573,18.7960659 L32.1548753,20.8839341 L32.9729556,21.2935718 C34.1271374,21.8700988 35.4178605,22.1747012 36.7050825,22.1747012 C38.9025793,22.1747012 41.0533953,21.2830682 42.6066977,19.7297129 L44.8298689,17.5064659 L43.6733531,16.3499106 C45.2885074,14.8397365 47.3763044,14.0052894 49.5983087,14.0052894 C51.9206765,14.0052894 54.1030021,14.9085929 55.7461649,16.5518118 C57.1139112,17.9196047 58.9332939,18.6735247 60.8682114,18.6735247 L66.5212516,18.6735247 L66.5212516,18.9676235 C66.5224186,20.7217129 65.8397125,22.3719341 64.5396533,23.6720376 C63.2465962,24.9651388 61.5357463,25.6758776 59.7186977,25.6758776 L59.7151966,25.6758776 L54.3667484,25.6758776 L56.9015137,28.2107294 C59.4712896,30.7805929 62.7972939,32.3199435 66.3777082,32.6233788 C66.178148,33.3913035 65.7766934,34.1055435 65.2118562,34.6704 L65.011129,34.8711341 C64.1790444,35.7032471 63.0283636,36.1794071 61.8520085,36.1794071 L57.1839323,36.1794071 L57.1839323,37.3464659 C57.1839323,41.6529129 60.533277,45.1926024 64.7637209,45.4948706 C63.5080085,47.9993788 61.3140127,49.9110212 58.6298689,50.8061553 C57.5468753,51.1679435 56.4160338,51.3511718 55.2700211,51.3511718 L46.1976152,51.3511718 L52.7667653,57.9205459 C49.8982326,58.9825694 46.8954926,59.5205835 43.8297336,59.5205835 C36.9489894,59.5205835 30.48137,56.8410165 25.6160677,51.9755482 L24.8866808,51.2461365 C24.6392727,50.1350965 24.5073996,48.9983812 24.5073996,47.8499953 L22.1733615,47.8499953 C22.1733615,51.0850824 23.0451247,54.2618165 24.6929556,57.0417506 C21.3039323,56.5819294 18.1728203,55.0367435 15.7139112,52.5777506 L11.6701903,48.5338918 L11.6701903,56.3415153 L10.3129471,55.5665882 C7.55178013,53.9887247 5.83509514,51.0313976 5.83509514,47.8499953 L3.50105708,47.8499953 C3.50105708,51.8670118 5.6670444,55.6004329 9.15526427,57.5937694 L14.0042283,60.3655341 L14.0042283,54.1684518 L14.0637463,54.2279718 C17.477277,57.6416188 22.0134799,59.5205835 26.8414376,59.5205835 L28.9035603,59.5205835 L26.8962875,56.17696 C31.7475856,59.8578635 37.6340296,61.8547012 43.8297336,61.8547012 C47.4183171,61.8547012 50.9287104,61.1789741 54.2617167,59.8450259 L56.9271882,58.7795012 L51.8319831,53.6852894 L55.2700211,53.6852894 C56.6657759,53.6852894 58.0451924,53.4623812 59.368592,53.0200659 C62.991019,51.8133271 65.8828922,49.0870776 67.3008203,45.5403859 L68.2437717,43.18176 L65.3530655,43.18176 C62.5347146,43.18176 60.1773362,41.1732518 59.6358393,38.5135247 L61.8520085,38.5135247 C63.6422156,38.5135247 65.3950782,37.7876141 66.6612939,36.5213553 L66.8620211,36.3206212 C68.1282368,35.0543624 68.8541226,33.30144 68.8541226,31.5111718 L68.8541226,30.3441129 L67.6871036,30.3441129 C64.9877886,30.3441129 62.4121776,29.5213365 60.2520254,27.9948235 Z" id="Shape"></path>
                            <path d="M43.179704,22.1747012 L40.845666,22.1747012 L40.845666,24.2263906 C40.845666,27.1078588 39.7241607,29.8154353 37.6865455,31.85312 C35.6489302,33.8908047 32.9414461,35.0123482 30.0600761,35.0123482 L26.497167,35.0123482 C26.7189006,34.2724329 26.8414376,33.4893365 26.8414376,32.6782306 C26.8414376,28.1745506 23.1758309,24.5088188 18.6723044,24.5088188 L4.66807611,24.5088188 L4.66807611,26.8429365 L18.6723044,26.8429365 C21.8897759,26.8429365 24.5073996,29.4606494 24.5073996,32.6782306 C24.5073996,35.8958118 21.8897759,38.5135247 18.6723044,38.5135247 L4.66807611,38.5135247 L4.66807611,40.8476424 L18.6723044,40.8476424 C21.4404736,40.8476424 23.8877125,39.4600094 25.3663256,37.3464659 L28.029463,37.3464659 L28.7880254,39.6805835 L26.8414376,39.6805835 L26.8414376,44.5495529 C26.8414376,46.9548612 27.8170655,49.3088188 29.5174123,51.0092235 C31.217759,52.7096282 33.5728034,53.6852894 35.9768626,53.6852894 L42.4958309,53.6852894 L39.4779197,50.6672753 C38.5408034,49.72896 37.8907738,48.5817412 37.5710106,47.3306541 L39.5164313,48.1090824 C41.0242199,48.7112847 42.6125328,49.0170541 44.2346892,49.0170541 C47.6283805,49.0170541 50.8201776,47.6947765 53.2195687,45.2953035 L56.5000592,42.0147012 L53.6828753,42.0147012 C51.7818013,42.0147012 49.9600846,41.4930259 48.3822748,40.5173647 C50.6077801,39.9945224 52.6500634,38.8624753 54.3072304,37.2052518 L58.8340973,32.6782306 L47.8477801,32.6782306 L47.8477801,35.0123482 L53.1997294,35.0123482 L52.6570655,35.5550306 C50.7489894,37.4631718 48.2118901,38.5135247 45.5137421,38.5135247 L42.6965581,38.5135247 L44.8893869,40.7064282 C46.6177421,42.4348424 48.7662241,43.5925647 51.1037632,44.0838965 C49.2073573,45.7644612 46.7916279,46.6829365 44.2346892,46.6829365 C42.9101226,46.6829365 41.6147315,46.4331859 40.3823594,45.9406871 L35.0105708,43.7921318 L35.0105708,45.5158776 C35.0105708,47.6527624 35.7026131,49.6822776 36.9804989,51.3511718 L35.9780296,51.3511718 C34.1878224,51.3511718 32.4349598,50.6252612 31.1687442,49.3590024 C29.9025285,48.0927435 29.1754757,46.3398212 29.1754757,44.5495529 L29.1754757,42.0147012 L30.7427822,42.0147012 C35.3116617,42.0147012 39.6074588,40.2361035 42.8377674,37.0045176 C46.0680761,33.7729318 47.8477801,29.4781553 47.8477801,24.90912 L47.8477801,22.1747012 L45.5137421,22.1747012 L45.5137421,24.5088188 L43.1656998,24.5088188 C43.1680338,24.4142871 43.179704,24.3209224 43.179704,24.2263906 L43.179704,22.1747012 Z M31.2340973,39.6572424 L30.4767019,37.3266259 C31.339129,37.2997835 32.1852178,37.1912471 33.0091332,37.0021835 L34.5811078,39.1635765 C33.4981142,39.4530071 32.3789429,39.6198965 31.2340973,39.6572424 Z M36.8684651,38.3408 L35.3373362,36.2342588 C36.1402452,35.8818071 36.9046427,35.4453271 37.6270275,34.9329882 L39.8350275,36.5376941 C38.9142495,37.2612706 37.9187822,37.8623059 36.8684651,38.3408 Z M41.5797209,34.9213176 L39.4522452,33.3749647 C40.0695983,32.7424188 40.6134292,32.0573553 41.0837378,31.3314447 L43.609167,32.1518871 C43.0501649,33.14272 42.3686258,34.0693647 41.5797209,34.9213176 Z M45.3736998,26.8429365 C45.2313235,27.9353035 44.9687442,28.9973271 44.5929641,30.0185035 L42.1924059,29.2377412 C42.5110021,28.4674824 42.7537421,27.6657129 42.9194588,26.8429365 L45.3736998,26.8429365 Z" id="Shape"></path>
                        </g>
                    </g>
                </g>
            </g>
        </g>
    </g>
</svg>