<?xml version="1.0" encoding="UTF-8"?>
<svg width="65px" height="65px" viewBox="0 0 65 65" version="1.1" xmlns="http://www.w3.org/2000/svg" xmlns:xlink="http://www.w3.org/1999/xlink">
    <!-- Generator: Sketch 43.1 (39012) - http://www.bohemiancoding.com/sketch -->
    <title>whale</title>
    <desc>Created with Sketch.</desc>
    <defs></defs>
    <g id="Homepage" stroke="none" stroke-width="1" fill="none" fill-rule="evenodd">
        <g id="Pricing-Plans" transform="translate(-174.000000, -1305.000000)" fill-rule="nonzero" fill="#FFFFFF">
            <g id="MIDMAIN" transform="translate(0.000000, 387.000000)">
                <g id="Row-2" transform="translate(45.000000, 886.000000)">
                    <g id="PP-5">
                        <g id="whale" transform="translate(161.500000, 64.500000) scale(-1, 1) translate(-161.500000, -64.500000) translate(129.000000, 32.000000)">
                            <path d="M48.6549708,20.583291 C49.8475244,20.583291 50.8174561,19.6115918 50.8174561,18.416582 C50.8174561,17.2216992 49.8476511,16.249873 48.6549708,16.249873 C47.4624172,16.249873 46.4924854,17.2215723 46.4924854,18.416582 C46.4924854,19.6115918 47.4624172,20.583291 48.6549708,20.583291 Z" id="Shape"></path>
                            <path d="M52.9798148,10.833291 C54.7681384,10.833291 56.2234795,9.37510742 56.2234795,7.58329102 C56.2234795,5.79147461 54.7681384,4.33329102 52.9798148,4.33329102 C51.1914912,4.33329102 49.7361501,5.79147461 49.7361501,7.58329102 C49.7361501,9.37510742 51.1914912,10.833291 52.9798148,10.833291 Z M52.9798148,6.5 C53.5765984,6.5 54.0609942,6.98635742 54.0609942,7.58329102 C54.0609942,8.18022461 53.5765984,8.66658203 52.9798148,8.66658203 C52.3830312,8.66658203 51.8986355,8.18022461 51.8986355,7.58329102 C51.8986355,6.98635742 52.3830312,6.5 52.9798148,6.5 Z" id="Shape"></path>
                            <path d="M49.7361501,26.541709 C49.7361501,27.4376172 50.4638207,28.166709 51.3579825,28.166709 C52.2521442,28.166709 52.9798148,27.4376172 52.9798148,26.541709 C52.9798148,25.6458008 52.2521442,24.916709 51.3579825,24.916709 C50.4638207,24.916709 49.7361501,25.6458008 49.7361501,26.541709 Z" id="Shape"></path>
                            <path d="M60.5484503,32.5 L29.1929825,32.5 C17.742846,32.5 17.3168616,22.3643164 17.3006433,13 L25.9493177,13 C28.3345517,13 30.2741618,14.9435254 30.2741618,17.333291 L30.2741618,21.666582 L25.9493177,21.666582 C23.5640838,21.666582 21.6244737,19.7230566 21.6244737,17.333291 L21.6244737,16.25 C21.6244737,15.6520508 21.1412183,15.166709 20.5432943,15.166709 C19.9453704,15.166709 19.4619883,15.6520508 19.4619883,16.25 L19.4619883,17.333291 C19.4619883,20.9180664 22.3715302,23.833291 25.9493177,23.833291 L31.3554678,23.833291 C31.9533918,23.833291 32.4366472,23.3479492 32.4366472,22.75 L32.4366472,17.333291 C32.4366472,13.7485156 29.5271053,10.833291 25.9493177,10.833291 L17.2995029,10.833291 L17.2995029,6.5 C17.2995029,2.91522461 14.389961,0 10.8121735,0 L5.4061501,0 C4.80822612,0 4.32497076,0.485341797 4.32497076,1.08329102 L4.32497076,6.5 C4.32497076,8.16727539 5.038577,10.3501074 7.03989279,11.4736426 C7.56318713,11.765 8.22053606,11.5797754 8.51145224,11.0576172 C8.80452242,10.5364746 8.61851852,9.87568359 8.09737817,9.58318359 C6.91115984,8.91693359 6.48732943,7.5540918 6.48732943,6.5 L6.48732943,2.16670898 L10.8121735,2.16670898 C13.1974074,2.16670898 15.1370175,4.11023437 15.1370175,6.5 L15.1370175,10.909209 C9.31907407,11.6794336 0,18.4827246 0,33.583291 C0,45.3353418 7.13175439,56.2455664 16.9579045,59.5280664 C17.0714327,59.5660254 17.1861014,59.583291 17.2996296,59.583291 C17.752729,59.583291 18.1744055,59.29625 18.3246784,58.8422656 C18.5138499,58.2756738 18.2078558,57.6614746 17.6413548,57.4718066 C8.67135478,54.4764746 2.16248538,44.4296582 2.16248538,33.583291 C2.16248538,20.0458984 10.0877973,13.8849902 15.1382846,13.0953418 C15.1609649,22.5571582 15.7026316,34.666709 29.1931092,34.666709 L60.548577,34.666709 C61.740117,34.666709 62.7110624,35.6384082 62.7110624,36.833418 L62.7110624,37.916709 C62.7110624,40.0280664 62.4472612,42.1243164 61.9261209,44.1469336 C61.7780019,44.7264746 62.1261891,45.3169336 62.70346,45.4664844 C62.794308,45.489209 62.8851559,45.500127 62.9748635,45.500127 C63.4559649,45.500127 63.8960136,45.1762695 64.0214522,44.687627 C64.5857992,42.488418 64.8734211,40.2102441 64.8734211,37.9168359 L64.8734211,36.8335449 C64.8732943,34.4435254 62.9335575,32.5 60.5484503,32.5 Z" id="Shape"></path>
                            <path d="M61.6296296,47.666709 L44.3301267,47.666709 C36.5723197,47.666709 34.8943567,51.9675 34.6618519,52.7171582 C34.3158187,53.5188672 30.497037,61.8778418 21.089269,62.7585156 L24.7913548,53.4862402 C25.012963,52.9294238 24.7426998,52.2999902 24.1879825,52.0768066 C23.6365595,51.8569238 23.0040448,52.1255566 22.7824366,52.6802148 L18.4575926,63.5135059 C18.3245517,63.8471387 18.365731,64.2263477 18.5668129,64.5231641 C18.7678947,64.821123 19.1030312,64.999873 19.462115,64.999873 C31.8009649,64.999873 36.6330117,53.6107812 36.6805263,53.4960156 C36.700039,53.4472656 36.7162573,53.397373 36.7291813,53.3464648 C36.7356433,53.3247559 37.1000487,52.0010156 38.9241033,50.9847559 L38.9241033,59.5831641 C38.9241033,60.1811133 39.4073587,60.6664551 40.0052827,60.6664551 C40.6032066,60.6664551 41.086462,60.1811133 41.086462,59.5831641 L41.086462,50.1744141 C41.9796101,49.9653223 43.0455848,49.8331641 44.3301267,49.8331641 L45.411306,49.8331641 L45.411306,57.9581641 C45.411306,58.5561133 45.8945614,59.0414551 46.4924854,59.0414551 C47.0904094,59.0414551 47.5736647,58.5561133 47.5736647,57.9581641 L47.5736647,49.8331641 L51.8986355,49.8331641 L51.8986355,53.0831641 C51.8986355,53.6811133 52.3818908,54.1664551 52.9798148,54.1664551 C53.5777388,54.1664551 54.0609942,53.6811133 54.0609942,53.0831641 L54.0609942,49.8331641 L59.8898343,49.8331641 C55.6103509,57.7827148 47.1367836,62.8331641 37.8426706,62.8331641 L31.3553411,62.8331641 C30.7574172,62.8331641 30.2741618,63.3185059 30.2741618,63.9164551 C30.2741618,64.5144043 30.7574172,64.9997461 31.3553411,64.9997461 L37.8426706,64.9997461 C48.5672904,64.9997461 58.2918226,58.7955469 62.6145127,49.1949707 C62.7659259,48.8601953 62.7366569,48.4713379 62.537729,48.1625879 C62.3389279,47.8529492 61.9972027,47.666709 61.6296296,47.666709 Z" id="Shape"></path>
                            <path d="M49.7685867,42.25 C49.7685867,41.6520508 49.284191,41.166709 48.6874074,41.166709 L48.6754971,41.166709 C48.0797271,41.166709 47.6007797,41.6520508 47.6007797,42.25 C47.6007797,42.8479492 48.0894834,43.333291 48.6874074,43.333291 C49.284191,43.333291 49.7685867,42.8479492 49.7685867,42.25 Z" id="Shape"></path>
                        </g>
                    </g>
                </g>
            </g>
        </g>
    </g>
</svg>