<?xml version="1.0" encoding="UTF-8"?>
<svg width="96px" height="61px" viewBox="0 0 96 61" version="1.1" xmlns="http://www.w3.org/2000/svg" xmlns:xlink="http://www.w3.org/1999/xlink">
    <!-- Generator: Sketch 43.1 (39012) - http://www.bohemiancoding.com/sketch -->
    <title>mammoth</title>
    <desc>Created with Sketch.</desc>
    <defs>
        <linearGradient x1="100%" y1="10.3118142%" x2="34.4004235%" y2="73.4736712%" id="linearGradient-1">
            <stop stop-color="#E4773D" offset="0%"></stop>
            <stop stop-color="#8F97A5" offset="100%"></stop>
        </linearGradient>
    </defs>
    <g id="Homepage" stroke="none" stroke-width="1" fill="none" fill-rule="evenodd">
        <g id="Pricing-Plans" transform="translate(-501.000000, -1307.000000)" fill-rule="nonzero" fill="url(#linearGradient-1)">
            <g id="MIDMAIN" transform="translate(0.000000, 387.000000)">
                <g id="Row-2" transform="translate(45.000000, 886.000000)">
                    <g id="PP-6" transform="translate(342.666667, 0.000000)">
                        <g id="mammoth" transform="translate(161.500000, 64.500000) scale(-1, 1) translate(-161.500000, -64.500000) translate(114.000000, 34.000000)">
                            <path d="M58.2662527,16.4503559 L56.9410131,17.4714339 C56.7690196,17.6039797 56.5924728,17.5828881 56.503061,17.5586949 C56.4130283,17.5345017 56.2499346,17.4639898 56.1681808,17.263 L53.4135948,10.5052339 C53.2985185,10.2231864 53.4433987,10.0331559 53.5396405,9.9450678 C53.6362963,9.85677288 53.8385076,9.72939661 54.1092266,9.8687661 L57.9001198,11.8160102 C58.5607734,12.1553356 59.3718954,11.8956203 59.7117429,11.2351661 C60.0515904,10.5751254 59.791427,9.76475593 59.1305664,9.42522373 L55.3394662,7.47797966 C54.1388235,6.86115593 52.7187908,7.05118644 51.7226362,7.96225763 C50.7264815,8.87332881 50.4120915,10.2695051 50.9214488,11.5190746 L53.6762418,18.2770475 C54.0556209,19.2081763 54.8305229,19.8924102 55.8020479,20.1544 C56.0808388,20.229461 56.3629412,20.2664746 56.6425599,20.2664746 C57.3373638,20.2664746 58.0164379,20.0381898 58.5843682,19.6002305 L59.9094009,18.5791525 C60.4978214,18.1258915 60.6068954,17.2818169 60.1530065,16.6939424 C59.6991176,16.1060678 58.8544662,15.9968881 58.2662527,16.4503559 Z" id="Shape"></path>
                            <path d="M64.928878,13.3860881 L62.2601852,13.0420068 C61.523366,12.9464746 60.8488453,13.4667322 60.7538453,14.2028678 C60.6586383,14.9392102 61.1789651,15.6128983 61.9157843,15.7080169 L64.5844771,16.0520983 C64.6428431,16.0597492 64.7010022,16.0632644 64.7583333,16.0632644 C65.4247821,16.0632644 66.0034749,15.5688542 66.090817,14.8912373 C66.186024,14.1548949 65.6659041,13.4812068 64.928878,13.3860881 Z" id="Shape"></path>
                            <path d="M82.6820806,4.27703051 C81.9450545,4.18129153 81.2707407,4.70175593 81.1757407,5.43789153 C81.0805338,6.17402712 81.6008606,6.84792203 82.3376797,6.9428339 C88.5062636,7.73831525 92.8770915,13.399322 92.0810784,19.5621831 C91.3477778,25.2378712 86.4845643,29.3904203 80.9017102,29.3900068 C80.4225708,29.3900068 79.9374292,29.3594034 79.4498039,29.2963356 C78.9000871,29.2254102 78.3627887,29.1104407 77.8377015,28.9630068 C77.8993791,26.1867831 77.1321351,23.4204847 75.5968192,21.0669186 L66.9946623,7.86155593 C65.0681699,4.9064678 61.8118845,3.14222373 58.2838453,3.14222373 C57.5428867,3.14222373 56.802549,3.22142034 56.0837364,3.37753898 C54.1274401,3.80226441 52.111329,3.45694237 50.408573,2.40650169 L49.3000327,1.72144068 C46.4887364,-0.0119932203 42.9842919,-0.304172881 39.9258715,0.939813559 L18.2455882,9.74862712 C10.2028758,13.0157458 5.14200436,20.8057559 5.04990196,29.1464203 C5.04803922,29.1673051 5.04514161,29.1879831 5.04431373,29.2090746 C4.96214597,31.3287729 4.04857298,37.2552847 0.853137255,39.196739 C0.21835512,39.5823831 0.0165577342,40.4092949 0.402766885,41.0434881 C0.656100218,41.4595288 1.09922658,41.6894678 1.55352941,41.6894678 C1.79154684,41.6894678 2.03287582,41.6261932 2.25123094,41.4936475 C4.13943355,40.3464339 5.37753813,38.4240034 6.19093682,36.4407797 L7.48554466,41.3695797 C8.55641612,45.4460339 9.09930283,49.6500712 9.09930283,53.8652746 C9.09930283,55.6996169 8.99416122,57.561461 8.78698257,59.3991119 C8.74393246,59.7793797 8.86542484,60.1598542 9.12062092,60.4452102 C9.37581699,60.7305661 9.74070806,60.8937153 10.1238126,60.8937153 L18.1563834,60.8937153 C18.5233442,60.8937153 18.8745752,60.7438 19.1283224,60.4789153 C19.3822767,60.2140305 19.5166013,59.856922 19.5004575,59.4907153 L19.2599564,54.0230475 C19.2549891,53.9186237 19.2533333,53.8142 19.2533333,53.708122 C19.2533333,51.9089322 19.9156427,50.1792203 21.1185621,48.8378407 C22.061939,47.785539 22.8153159,46.6108237 23.3733115,45.363322 L41.2461438,44.4299186 C41.4363508,45.3097661 41.7141068,46.1805153 42.0845861,47.0303797 L47.7765142,60.0864475 C47.9901089,60.576722 48.4746296,60.8937153 49.0098584,60.8937153 L57.5782789,60.8937153 C57.9777342,60.8937153 58.3562854,60.7165051 58.6118954,60.4100576 C58.8672985,60.1036102 58.9734749,59.6995627 58.9014488,59.3073017 L56.2128867,44.6677153 C55.8198475,42.5240305 55.9653486,40.2941186 56.6336601,38.2194983 L59.4360566,29.5359932 C60.5895098,29.9077831 61.8033987,30.0918169 63.0197712,30.062661 L67.5764597,29.9574102 L67.7600436,32.0907559 C68.4035185,39.5712169 71.5027124,46.7859661 76.4870044,52.4066508 L77.615,53.676278 C77.8695752,53.9628746 78.2344662,54.1272644 78.6179847,54.1280915 L78.6212963,54.1280915 C79.003573,54.1280915 79.3678431,53.9655627 79.6232462,53.6810339 L82.3055991,50.691 C82.7427233,50.2036203 82.7650763,49.4720339 82.3581699,48.9592203 L80.6680392,46.8283559 C78.2632353,43.7905559 76.9386166,39.9845695 76.9386166,36.1113797 C76.9386166,34.7156169 77.1077124,33.3225424 77.4417647,31.9714441 C77.4672222,31.868261 77.4870915,31.7642508 77.5100654,31.6606542 C78.0322549,31.7907186 78.5645861,31.8924542 79.10561,31.962139 C79.7099673,32.0400949 80.3097712,32.0781424 80.90378,32.0781424 C87.8176688,32.0779356 93.8415795,26.9351186 94.7495643,19.9060576 C95.7355773,12.2734068 90.3220261,5.26212881 82.6820806,4.27703051 Z M78.5583769,48.4972746 L79.5450109,49.7410542 L78.6264706,50.7652339 L78.5006318,50.6233831 C73.8979956,45.4332136 71.0357843,38.7699458 70.4415686,31.8610237 L70.1497386,28.4698373 C70.0888889,27.7628576 69.4855664,27.2215085 68.7781373,27.2413593 L62.9589216,27.3755593 C61.6597603,27.4061627 60.3548039,27.1195661 59.1862418,26.5492678 C57.3878649,25.6745898 55.9775599,24.1741966 55.2156972,22.3253797 L54.5264815,20.6504644 C54.2441721,19.9639559 53.4583007,19.6362102 52.7707407,19.9184644 C52.0835948,20.2007186 51.7555447,20.9860678 52.038061,21.6725763 L52.7274837,23.3481119 C53.5905556,25.4423763 55.0801307,27.1981424 56.9790959,28.3918814 L54.0734205,37.3956881 C53.2693355,39.8917254 53.0942375,42.5738644 53.5671678,45.1528203 L55.9645207,58.2062 L49.8919717,58.2062 L44.5521024,45.9574 C42.8774946,42.116261 43.5182789,37.7410102 46.2240196,34.5388203 C46.703366,33.9716237 46.6315468,33.1236203 46.0638235,32.6447186 C45.4958932,32.1658169 44.6473094,32.2375695 44.167963,32.8047661 C41.9991068,35.3717288 40.8971895,38.5439356 40.9414815,41.7546034 L24.2593573,42.6257661 C24.8995207,39.5745254 24.4849564,36.3206407 22.9399129,33.460878 L20.0857734,28.183861 C19.7322658,27.5306441 18.9157625,27.2872644 18.2625599,27.6402373 C17.6087364,27.9932102 17.3653377,28.8085424 17.7184314,29.4617593 L20.5723638,34.7383627 C22.7261111,38.7248678 22.1403813,43.6704169 19.1148693,47.045061 C17.4694444,48.8802305 16.5631155,51.2468237 16.5631155,53.7089492 C16.5631155,53.859278 16.5658061,54.0071254 16.5726362,54.1483559 L16.7510458,58.2064068 L11.6077996,58.2064068 C11.728878,56.7589492 11.7901416,55.304461 11.7901416,53.8661017 C11.7901416,49.4207525 11.217451,44.9871898 10.0882135,40.6880339 L8.34137255,34.038 C5.99162309,25.0937458 10.6853268,15.7224915 19.2593355,12.2394949 L40.9400327,3.43047458 C43.2065795,2.50844407 45.8034532,2.72494237 47.8857952,4.00904407 L48.9941285,4.69410508 C51.2935839,6.11261356 54.0142266,6.57828136 56.6555991,6.00529492 C57.1868954,5.88970508 57.7349564,5.83118644 58.2840523,5.83118644 C60.8987255,5.83118644 63.3122222,7.13886102 64.7397059,9.32907119 L73.3420697,22.5346407 C74.3761002,24.1198136 74.9777669,25.9372 75.1195425,27.7975966 C73.2990196,26.7134508 71.7914379,25.1251763 70.8089434,23.1721424 C70.475305,22.5087932 69.6662527,22.2416339 69.0027015,22.5749627 C68.3387364,22.9082915 68.071122,23.7163864 68.4047603,24.3795288 C69.8336928,27.2194407 72.1557081,29.442322 74.9543791,30.7549593 C74.9175381,30.9466441 74.8759368,31.1377085 74.8289542,31.3279458 C74.443159,32.8899593 74.2473638,34.4995322 74.2473638,36.1124136 C74.2479847,40.5873322 75.7785403,44.9857424 78.5583769,48.4972746 Z" id="Shape"></path>
                        </g>
                    </g>
                </g>
            </g>
        </g>
    </g>
</svg>