<?xml version="1.0" encoding="UTF-8"?>
<svg width="66px" height="65px" viewBox="0 0 66 65" version="1.1" xmlns="http://www.w3.org/2000/svg" xmlns:xlink="http://www.w3.org/1999/xlink">
    <!-- Generator: Sketch 43.1 (39012) - http://www.bohemiancoding.com/sketch -->
    <title>diamond</title>
    <desc>Created with Sketch.</desc>
    <defs>
        <linearGradient x1="100%" y1="10.3118142%" x2="34.4004235%" y2="73.4736712%" id="linearGradient-1">
            <stop stop-color="#E4773D" offset="0%"></stop>
            <stop stop-color="#8F97A5" offset="100%"></stop>
        </linearGradient>
    </defs>
    <g id="Homepage" stroke="none" stroke-width="1" fill="none" fill-rule="evenodd">
        <g id="Pricing-Plans" transform="translate(-859.000000, -1305.000000)" fill-rule="nonzero" fill="url(#linearGradient-1)">
            <g id="MIDMAIN" transform="translate(0.000000, 387.000000)">
                <g id="Row-2" transform="translate(45.000000, 886.000000)">
                    <g id="PP-7" transform="translate(685.333333, 0.000000)">
                        <g id="diamond" transform="translate(129.000000, 32.000000)">
                            <path d="M64.7920508,27.3674121 L54.3831641,11.4950977 C54.1484277,11.1373437 53.749541,10.9217773 53.321709,10.9217773 L11.7276758,10.9217773 C11.3007324,10.9217773 10.9024805,11.1363281 10.6676172,11.4929395 L0.241972656,27.3179004 C0.192333984,27.3863281 0.149296875,27.4602148 0.113369141,27.5391797 C-0.092421875,27.9929102 -0.0137109375,28.5249707 0.314589844,28.8997363 L5.59901367,34.9334375 C6.06099609,35.4609277 6.86283203,35.5139941 7.39019531,35.0521387 C7.91755859,34.5901562 7.970625,33.7881934 7.50876953,33.260957 L4.0687207,29.3329004 L21.144043,29.3329004 L29.7244238,58.6269531 L20.0283789,47.5560059 C19.5665234,47.0285156 18.7644336,46.9754492 18.2371973,47.4373047 C17.709834,47.8992871 17.6567676,48.70125 18.118623,49.2284863 L31.5489941,64.5632812 C31.7899512,64.8385156 32.1381836,64.9964453 32.5039355,64.9964453 C32.8698145,64.9964453 33.217793,64.8385156 33.45875,64.5631543 L47.7574805,48.2329199 C48.2194629,47.7054297 48.1662695,46.9034668 47.6386523,46.4417383 C47.1110352,45.9797559 46.3090723,46.0329492 45.8474707,46.5605664 L35.2837012,58.6253027 L43.8637012,29.3327734 L60.9319141,29.3327734 L53.0375879,38.3489844 C52.5756055,38.8764746 52.6287988,39.6784375 53.156416,40.140166 C53.3972461,40.3511621 53.695332,40.4546289 53.9921484,40.4546289 C54.345332,40.4546289 54.6967383,40.307998 54.9475977,40.0213379 L64.6856641,28.8996094 C65.0611914,28.4707617 65.1047363,27.8441211 64.7920508,27.3674121 Z M3.62743164,26.7940918 L11.7251367,14.5023633 L19.7860254,26.7940918 L3.62743164,26.7940918 Z M14.0780859,13.4607129 L30.1532715,13.4607129 L22.1157422,25.7168945 L14.0780859,13.4607129 Z M32.5038086,14.5060449 L40.5621582,26.7940918 L24.445459,26.7940918 L32.5038086,14.5060449 Z M32.5038086,59.0843652 L23.7894922,29.3329004 L41.218125,29.3329004 L32.5038086,59.0843652 Z M42.9126953,25.7487598 L34.8543457,13.4607129 L50.9712988,13.4607129 L42.9126953,25.7487598 Z M45.2632324,26.7940918 L53.321709,14.5060449 L61.3799316,26.7940918 L45.2632324,26.7940918 Z" id="Shape"></path>
                            <path d="M19.9556348,41.5158301 C16.6811328,41.5158301 14.0170215,38.8517187 14.0170215,35.5772168 C14.0170215,34.8761816 13.4486523,34.3078125 12.7476172,34.3078125 C12.046582,34.3078125 11.4782129,34.8761816 11.4782129,35.5772168 C11.4782129,38.8517187 8.81410156,41.5158301 5.53959961,41.5158301 C4.83869141,41.5158301 4.27019531,42.0841992 4.27019531,42.7852344 C4.27019531,43.4862695 4.83869141,44.0546387 5.53959961,44.0546387 C8.81410156,44.0546387 11.4782129,46.71875 11.4782129,49.993252 C11.4782129,50.6942871 12.046709,51.2626562 12.7476172,51.2626562 C13.4485254,51.2626562 14.0170215,50.6942871 14.0170215,49.993252 C14.0170215,46.71875 16.6811328,44.0546387 19.9556348,44.0546387 C20.6566699,44.0546387 21.2250391,43.4862695 21.2250391,42.7852344 C21.2250391,42.0841992 20.6566699,41.5158301 19.9556348,41.5158301 Z M12.7476172,45.535166 C12.0555957,44.4202637 11.1125879,43.4773828 9.9978125,42.7852344 C11.1125879,42.0932129 12.0554687,41.150332 12.7476172,40.0353027 C13.4396387,41.1502051 14.3826465,42.0930859 15.4974219,42.7852344 C14.3826465,43.4773828 13.4397656,44.4201367 12.7476172,45.535166 Z" id="Shape"></path>
                            <path d="M63.7305957,5.08104492 C61.630791,5.08104492 59.9223828,3.37263672 59.9223828,1.27283203 C59.9223828,0.571796875 59.3538867,0.00342773438 58.6529785,0.00342773438 C57.9520703,0.00342773438 57.3835742,0.571796875 57.3835742,1.27283203 C57.3835742,3.37263672 55.675166,5.08104492 53.5753613,5.08104492 C52.8744531,5.08104492 52.305957,5.64941406 52.305957,6.35044922 C52.305957,7.05148438 52.8744531,7.61985352 53.5753613,7.61985352 C55.675166,7.61985352 57.3835742,9.32826172 57.3835742,11.4280664 C57.3835742,12.1291016 57.9520703,12.6974707 58.6529785,12.6974707 C59.3538867,12.6974707 59.9223828,12.1291016 59.9223828,11.4280664 C59.9223828,9.32826172 61.630791,7.61985352 63.7305957,7.61985352 C64.4315039,7.61985352 65,7.05148438 65,6.35044922 C65,5.64941406 64.4315039,5.08104492 63.7305957,5.08104492 Z M58.6529785,7.62378906 C58.2907812,7.14162109 57.8618066,6.71264648 57.3796387,6.35044922 C57.8618066,5.98825195 58.2907813,5.55927734 58.6529785,5.07710937 C59.0151758,5.55927734 59.4441504,5.98825195 59.9263184,6.35044922 C59.4441504,6.71251953 59.0150488,7.14162109 58.6529785,7.62378906 Z" id="Shape"></path>
                            <path d="M51.1345605,42.5763965 C50.8985547,42.3389941 50.5710156,42.2044238 50.2372559,42.2044238 C49.9032422,42.2044238 49.5772266,42.3389941 49.3398242,42.5763965 C49.1036914,42.8125293 48.9678516,43.1400684 48.9678516,43.4738281 C48.9678516,43.8075879 49.1035645,44.135127 49.3398242,44.3712598 C49.575957,44.6073926 49.9032422,44.7432324 50.2372559,44.7432324 C50.5711426,44.7432324 50.8985547,44.6073926 51.1345605,44.3712598 C51.3706934,44.135127 51.5066602,43.8075879 51.5066602,43.4738281 C51.5066602,43.1400684 51.3708203,42.8125293 51.1345605,42.5763965 Z" id="Shape"></path>
                        </g>
                    </g>
                </g>
            </g>
        </g>
    </g>
</svg>