<?xml version="1.0" encoding="UTF-8"?>
<svg width="108px" height="1110px" viewBox="0 0 108 1110" version="1.1" xmlns="http://www.w3.org/2000/svg" xmlns:xlink="http://www.w3.org/1999/xlink">
    <!-- Generator: Sketch 43.1 (39012) - http://www.bohemiancoding.com/sketch -->
    <title>Vertical Soundwave</title>
    <desc>Created with Sketch.</desc>
    <defs>
        <linearGradient x1="100%" y1="10.3118142%" x2="34.4004235%" y2="73.4736712%" id="linearGradient-1">
            <stop stop-color="#E4773D" offset="0%"></stop>
            <stop stop-color="#8F97A5" offset="100%"></stop>
        </linearGradient>
    </defs>
    <g id="Homepage" stroke="none" stroke-width="1" fill="none" fill-rule="evenodd" opacity="0.817651721">
        <g id="Sign-In-/-Sign-Up" transform="translate(-666.000000, 0.000000)" fill-rule="nonzero" fill="url(#linearGradient-1)">
            <g id="Group" transform="translate(0.000000, -682.000000)">
                <g id="Vertical-Soundwave" transform="translate(666.000000, 0.000000)">
                    <g id="v-wave" transform="translate(0.000000, 894.000000)">
                        <g id="Asset-1" transform="translate(54.000000, 197.500000) rotate(90.000000) translate(-54.000000, -197.500000) translate(-143.500000, 143.500000)">
                            <polygon id="_Path_" transform="translate(197.320000, 53.665000) scale(-1, 1) translate(-197.320000, -53.665000) " points="0 53.41 1.54 66.27 3.08 57.52 4.62 73.83 6.16 55.93 7.7 58.45 9.24 55.43 10.78 60.97 12.32 55.43 13.87 61.98 15.4 55.43 16.95 57.44 18.49 54.92 20.03 62.48 21.57 54.92 23.11 69.03 24.65 54.92 26.19 64.5 27.73 55.43 29.27 69.03 30.81 56.94 32.35 62.99 33.89 58.95 35.43 68.03 36.97 56.94 38.51 76.09 40.05 60.47 41.59 84.15 43.13 63.99 44.67 95.74 46.22 66.51 47.76 97.75 49.3 69.54 50.84 106.32 52.38 70.69 53.92 94.16 55.46 78.54 57 96.18 58.54 66.95 60.08 93.16 61.62 64.65 63.16 79.55 64.7 58.1 66.24 71.49 67.78 54.92 69.32 72.56 70.86 54.92 72.4 60.97 73.94 54.42 75.48 56.44 77.03 54.92 78.57 56.94 80.11 55.93 81.65 60.97 83.19 54.92 84.73 62.48 86.27 54.42 87.81 56.44 89.35 54.92 90.89 62.48 92.43 55.93 93.97 59.46 95.51 56.94 97.05 66.51 98.59 58.45 100.13 82.13 101.67 56.44 103.22 69.54 104.75 56.44 106.3 77.1 107.84 58.45 109.38 90.38 110.92 58.95 112.46 101.97 114 68.53 115.54 87.36 117.08 65.51 118.62 83.14 120.16 54.92 121.7 68.53 123.24 54.92 124.78 61.98 126.32 55.43 127.86 67.52 129.4 55.43 130.94 65 132.49 54.92 134.03 62.48 135.57 54.92 137.11 76.59 138.65 73.06 140.19 85.66 141.73 64.5 143.27 79.11 144.81 69.54 146.35 74.07 147.89 63.99 149.43 83.69 150.97 69.54 152.51 92.25 154.05 69.03 155.59 96.29 157.13 76.09 158.67 96.79 160.21 67.02 161.75 81.17 163.29 65.51 164.84 80.62 166.38 56.94 167.92 66.51 169.46 55.43 171 68.03 172.54 57.95 174.08 79.11 175.62 62.99 177.16 70.04 178.7 59.46 180.24 66.51 181.78 53.41 183.32 59.96 184.86 54.42 186.4 65.51 187.94 53.92 189.48 60.47 191.02 55.93 192.56 57.95 194.1 53.41 195.65 56.44 197.19 53.41 199 67.38 200.54 61.98 202.08 74.94 203.62 55.93 205.16 58.45 206.7 55.43 208.24 60.97 209.78 55.43 211.32 61.98 212.86 55.43 214.4 57.44 215.94 54.92 217.48 62.48 219.03 54.92 220.57 69.03 222.11 54.92 223.65 64.5 225.19 55.43 226.73 69.03 228.27 56.94 229.81 62.99 231.35 58.95 232.89 68.03 234.43 56.94 235.97 76.09 237.51 60.47 239.05 84.15 240.59 63.99 242.13 84.59 243.67 55.36 245.21 86.61 246.75 69.54 248.29 106.32 249.84 79.61 251.38 105.31 252.92 89.69 254.46 107.33 256 78.1 257.54 104.31 259.08 73.57 260.62 90.7 262.16 67.02 263.7 82.64 265.24 54.92 266.78 72.56 268.32 54.92 269.86 60.97 271.4 54.42 272.94 56.44 274.48 54.92 276.02 56.94 277.56 55.93 279.11 60.97 280.65 54.92 282.19 62.48 283.73 54.42 285.27 56.44 286.81 54.92 288.35 62.48 289.89 55.93 291.43 59.46 292.97 56.94 294.51 66.51 296.05 58.45 297.59 82.13 299.13 56.44 300.67 69.54 302.21 56.44 303.75 77.1 305.29 58.45 306.83 93.72 308.38 58.95 309.92 105.31 311.46 68.53 313 90.7 314.54 65.51 316.08 83.14 317.62 54.92 319.16 68.53 320.7 54.92 322.24 61.98 323.78 55.43 325.32 67.52 326.86 55.43 328.4 65 329.94 54.92 331.48 62.48 333.02 54.92 334.56 76.59 336.1 73.06 337.64 85.66 339.19 64.5 340.73 79.11 342.27 69.54 343.81 74.07 345.35 63.99 346.89 93.72 348.43 69.54 349.97 102.29 351.51 59 353.05 96.29 354.59 66.05 356.13 106.83 357.67 67.02 359.21 91.2 360.75 65.51 362.29 80.62 363.83 56.94 365.37 66.51 366.92 55.43 368.45 68.03 370 57.95 371.54 79.11 373.08 62.99 374.62 70.04 376.16 59.46 377.7 66.51 379.24 53.41 380.78 59.96 382.32 54.42 383.86 65.51 385.4 53.92 386.94 60.47 388.48 55.93 390.02 75.79 391.56 53.41 393.1 74.28 394.64 53.41 393.1 41.47 391.56 53.41 390.02 29.92 388.48 50.89 386.94 46.36 385.4 52.91 383.86 41.32 382.32 52.41 380.78 46.86 379.24 53.41 377.7 40.31 376.16 47.37 374.62 36.78 373.08 43.84 371.54 27.71 370 48.88 368.45 38.8 366.92 51.4 365.37 40.31 363.83 49.88 362.29 26.2 360.75 41.32 359.21 15.62 357.67 39.81 356.13 -1.42108547e-14 354.59 45.23 353.05 15 351.51 52.29 349.97 4.54 348.43 37.29 346.89 13.1 345.35 42.83 343.81 32.75 342.27 37.29 340.73 27.71 339.19 42.33 337.64 21.16 336.1 33.76 334.56 30.23 333.02 51.9 331.48 44.34 329.94 51.9 328.4 41.82 326.86 51.4 325.32 39.3 323.78 51.4 322.24 44.85 320.7 51.9 319.16 38.3 317.62 51.9 316.08 23.68 314.54 41.32 313 16.12 311.46 38.3 309.92 1.51 308.38 47.87 306.83 13.1 305.29 48.37 303.75 29.73 302.21 50.39 300.67 37.29 299.13 50.39 297.59 24.69 296.05 48.37 294.51 40.31 292.97 49.88 291.43 47.37 289.89 50.89 288.35 44.34 286.81 51.9 285.27 50.39 283.73 52.41 282.19 44.34 280.65 51.9 279.11 45.85 277.56 50.89 276.02 49.88 274.48 51.9 272.94 50.39 271.4 52.41 269.86 45.85 268.32 51.9 266.78 34.27 265.24 51.9 263.7 24.19 262.16 39.81 260.62 16.12 259.08 33.26 257.54 2.52 256 47.68 254.46 18.45 252.92 36.09 251.38 1.51 249.84 27.21 248.29 0.5 246.75 37.29 245.21 9.07 243.67 40.31 242.13 11.09 240.59 42.83 239.05 22.68 237.51 46.36 235.97 30.74 234.43 49.88 232.89 38.8 231.35 47.87 229.81 43.84 228.27 49.88 226.73 37.79 225.19 51.4 223.65 42.33 222.11 51.9 220.57 37.79 219.03 51.9 217.48 44.34 215.94 51.9 214.4 49.38 212.86 51.4 211.32 44.85 209.78 51.4 208.24 45.85 206.7 51.4 205.16 48.37 203.62 50.89 202.08 25.2 200.54 44.85 199 32.75 197.19 53.41 195.65 50.39 194.1 53.41 192.56 48.88 191.02 50.89 189.48 46.36 187.94 52.91 186.4 41.32 184.86 52.41 183.32 46.86 181.78 53.41 180.24 40.31 178.7 47.37 177.16 36.78 175.62 43.84 174.08 27.71 172.54 48.88 171 38.8 169.46 51.4 167.92 40.31 166.38 49.88 164.84 26.2 163.29 41.32 161.75 15.62 160.21 39.81 158.67 -1.42108547e-14 157.13 30.74 155.59 0.5 154.05 37.79 152.51 4.54 150.97 37.29 149.43 13.1 147.89 42.83 146.35 32.75 144.81 37.29 143.27 27.71 141.73 42.33 140.19 21.16 138.65 33.76 137.11 30.23 135.57 51.9 134.03 44.34 132.49 51.9 130.94 41.82 129.4 51.4 127.86 39.3 126.32 51.4 124.78 44.85 123.24 51.9 121.7 38.3 120.16 51.9 118.62 23.68 117.08 41.32 115.54 16.12 114 38.3 112.46 7.09 110.92 47.87 109.38 18.68 107.84 48.37 106.3 29.73 104.75 50.39 103.22 37.29 101.67 50.39 100.13 24.69 98.59 48.37 97.05 40.31 95.51 49.88 93.97 47.37 92.43 50.89 90.89 44.34 89.35 51.9 87.81 50.39 86.27 52.41 84.73 44.34 83.19 51.9 81.65 45.85 80.11 50.89 78.57 49.88 77.03 51.9 75.48 50.39 73.94 52.41 72.4 45.85 70.86 51.9 69.32 34.27 67.78 51.9 66.24 27.53 64.7 39.81 63.16 19.47 61.62 42.18 60.08 9.21 58.54 37.64 57 6.19 55.46 47.24 53.92 26.04 52.38 46.17 50.84 25.04 49.3 37.29 47.76 9.07 46.22 40.31 44.67 11.09 43.13 42.83 41.59 22.68 40.05 46.36 38.51 30.74 36.97 49.88 35.43 38.8 33.89 47.87 32.35 43.84 30.81 49.88 29.27 37.79 27.73 51.4 26.19 42.33 24.65 51.9 23.11 37.79 21.57 51.9 20.03 44.34 18.49 51.9 16.95 49.38 15.4 51.4 13.87 44.85 12.32 51.4 10.78 45.85 9.24 51.4 7.7 48.37 6.16 50.89 4.62 33 3.08 52.65 1.54 40.56"></polygon>
                        </g>
                        <g id="Asset-1-Copy" transform="translate(54.000000, 592.500000) rotate(90.000000) translate(-54.000000, -592.500000) translate(-143.500000, 538.500000)">
                            <polygon id="_Path_" points="0 53.41 1.54 66.27 3.08 57.52 4.62 73.83 6.16 55.93 7.7 58.45 9.24 55.43 10.78 60.97 12.32 55.43 13.87 61.98 15.4 55.43 16.95 57.44 18.49 54.92 20.03 62.48 21.57 54.92 23.11 69.03 24.65 54.92 26.19 64.5 27.73 55.43 29.27 69.03 30.81 56.94 32.35 62.99 33.89 58.95 35.43 68.03 36.97 56.94 38.51 76.09 40.05 60.47 41.59 84.15 43.13 63.99 44.67 95.74 46.22 66.51 47.76 97.75 49.3 69.54 50.84 106.32 52.38 70.69 53.92 94.16 55.46 78.54 57 96.18 58.54 66.95 60.08 93.16 61.62 64.65 63.16 79.55 64.7 58.1 66.24 71.49 67.78 54.92 69.32 72.56 70.86 54.92 72.4 60.97 73.94 54.42 75.48 56.44 77.03 54.92 78.57 56.94 80.11 55.93 81.65 60.97 83.19 54.92 84.73 62.48 86.27 54.42 87.81 56.44 89.35 54.92 90.89 62.48 92.43 55.93 93.97 59.46 95.51 56.94 97.05 66.51 98.59 58.45 100.13 82.13 101.67 56.44 103.22 69.54 104.75 56.44 106.3 77.1 107.84 58.45 109.38 90.38 110.92 58.95 112.46 101.97 114 68.53 115.54 87.36 117.08 65.51 118.62 83.14 120.16 54.92 121.7 68.53 123.24 54.92 124.78 61.98 126.32 55.43 127.86 67.52 129.4 55.43 130.94 65 132.49 54.92 134.03 62.48 135.57 54.92 137.11 76.59 138.65 73.06 140.19 85.66 141.73 64.5 143.27 79.11 144.81 69.54 146.35 74.07 147.89 63.99 149.43 83.69 150.97 69.54 152.51 92.25 154.05 69.03 155.59 96.29 157.13 76.09 158.67 96.79 160.21 67.02 161.75 81.17 163.29 65.51 164.84 80.62 166.38 56.94 167.92 66.51 169.46 55.43 171 68.03 172.54 57.95 174.08 79.11 175.62 62.99 177.16 70.04 178.7 59.46 180.24 66.51 181.78 53.41 183.32 59.96 184.86 54.42 186.4 65.51 187.94 53.92 189.48 60.47 191.02 55.93 192.56 57.95 194.1 53.41 195.65 56.44 197.19 53.41 199 67.38 200.54 61.98 202.08 74.94 203.62 55.93 205.16 58.45 206.7 55.43 208.24 60.97 209.78 55.43 211.32 61.98 212.86 55.43 214.4 57.44 215.94 54.92 217.48 62.48 219.03 54.92 220.57 69.03 222.11 54.92 223.65 64.5 225.19 55.43 226.73 69.03 228.27 56.94 229.81 62.99 231.35 58.95 232.89 68.03 234.43 56.94 235.97 76.09 237.51 60.47 239.05 84.15 240.59 63.99 242.13 84.59 243.67 55.36 245.21 86.61 246.75 69.54 248.29 106.32 249.84 79.61 251.38 105.31 252.92 89.69 254.46 107.33 256 78.1 257.54 104.31 259.08 73.57 260.62 90.7 262.16 67.02 263.7 82.64 265.24 54.92 266.78 72.56 268.32 54.92 269.86 60.97 271.4 54.42 272.94 56.44 274.48 54.92 276.02 56.94 277.56 55.93 279.11 60.97 280.65 54.92 282.19 62.48 283.73 54.42 285.27 56.44 286.81 54.92 288.35 62.48 289.89 55.93 291.43 59.46 292.97 56.94 294.51 66.51 296.05 58.45 297.59 82.13 299.13 56.44 300.67 69.54 302.21 56.44 303.75 77.1 305.29 58.45 306.83 93.72 308.38 58.95 309.92 105.31 311.46 68.53 313 90.7 314.54 65.51 316.08 83.14 317.62 54.92 319.16 68.53 320.7 54.92 322.24 61.98 323.78 55.43 325.32 67.52 326.86 55.43 328.4 65 329.94 54.92 331.48 62.48 333.02 54.92 334.56 76.59 336.1 73.06 337.64 85.66 339.19 64.5 340.73 79.11 342.27 69.54 343.81 74.07 345.35 63.99 346.89 93.72 348.43 69.54 349.97 102.29 351.51 59 353.05 96.29 354.59 66.05 356.13 106.83 357.67 67.02 359.21 91.2 360.75 65.51 362.29 80.62 363.83 56.94 365.37 66.51 366.92 55.43 368.45 68.03 370 57.95 371.54 79.11 373.08 62.99 374.62 70.04 376.16 59.46 377.7 66.51 379.24 53.41 380.78 59.96 382.32 54.42 383.86 65.51 385.4 53.92 386.94 60.47 388.48 55.93 390.02 75.79 391.56 53.41 393.1 74.28 394.64 53.41 393.1 41.47 391.56 53.41 390.02 29.92 388.48 50.89 386.94 46.36 385.4 52.91 383.86 41.32 382.32 52.41 380.78 46.86 379.24 53.41 377.7 40.31 376.16 47.37 374.62 36.78 373.08 43.84 371.54 27.71 370 48.88 368.45 38.8 366.92 51.4 365.37 40.31 363.83 49.88 362.29 26.2 360.75 41.32 359.21 15.62 357.67 39.81 356.13 -1.42108547e-14 354.59 45.23 353.05 15 351.51 52.29 349.97 4.54 348.43 37.29 346.89 13.1 345.35 42.83 343.81 32.75 342.27 37.29 340.73 27.71 339.19 42.33 337.64 21.16 336.1 33.76 334.56 30.23 333.02 51.9 331.48 44.34 329.94 51.9 328.4 41.82 326.86 51.4 325.32 39.3 323.78 51.4 322.24 44.85 320.7 51.9 319.16 38.3 317.62 51.9 316.08 23.68 314.54 41.32 313 16.12 311.46 38.3 309.92 1.51 308.38 47.87 306.83 13.1 305.29 48.37 303.75 29.73 302.21 50.39 300.67 37.29 299.13 50.39 297.59 24.69 296.05 48.37 294.51 40.31 292.97 49.88 291.43 47.37 289.89 50.89 288.35 44.34 286.81 51.9 285.27 50.39 283.73 52.41 282.19 44.34 280.65 51.9 279.11 45.85 277.56 50.89 276.02 49.88 274.48 51.9 272.94 50.39 271.4 52.41 269.86 45.85 268.32 51.9 266.78 34.27 265.24 51.9 263.7 24.19 262.16 39.81 260.62 16.12 259.08 33.26 257.54 2.52 256 47.68 254.46 18.45 252.92 36.09 251.38 1.51 249.84 27.21 248.29 0.5 246.75 37.29 245.21 9.07 243.67 40.31 242.13 11.09 240.59 42.83 239.05 22.68 237.51 46.36 235.97 30.74 234.43 49.88 232.89 38.8 231.35 47.87 229.81 43.84 228.27 49.88 226.73 37.79 225.19 51.4 223.65 42.33 222.11 51.9 220.57 37.79 219.03 51.9 217.48 44.34 215.94 51.9 214.4 49.38 212.86 51.4 211.32 44.85 209.78 51.4 208.24 45.85 206.7 51.4 205.16 48.37 203.62 50.89 202.08 25.2 200.54 44.85 199 32.75 197.19 53.41 195.65 50.39 194.1 53.41 192.56 48.88 191.02 50.89 189.48 46.36 187.94 52.91 186.4 41.32 184.86 52.41 183.32 46.86 181.78 53.41 180.24 40.31 178.7 47.37 177.16 36.78 175.62 43.84 174.08 27.71 172.54 48.88 171 38.8 169.46 51.4 167.92 40.31 166.38 49.88 164.84 26.2 163.29 41.32 161.75 15.62 160.21 39.81 158.67 -1.42108547e-14 157.13 30.74 155.59 0.5 154.05 37.79 152.51 4.54 150.97 37.29 149.43 13.1 147.89 42.83 146.35 32.75 144.81 37.29 143.27 27.71 141.73 42.33 140.19 21.16 138.65 33.76 137.11 30.23 135.57 51.9 134.03 44.34 132.49 51.9 130.94 41.82 129.4 51.4 127.86 39.3 126.32 51.4 124.78 44.85 123.24 51.9 121.7 38.3 120.16 51.9 118.62 23.68 117.08 41.32 115.54 16.12 114 38.3 112.46 7.09 110.92 47.87 109.38 18.68 107.84 48.37 106.3 29.73 104.75 50.39 103.22 37.29 101.67 50.39 100.13 24.69 98.59 48.37 97.05 40.31 95.51 49.88 93.97 47.37 92.43 50.89 90.89 44.34 89.35 51.9 87.81 50.39 86.27 52.41 84.73 44.34 83.19 51.9 81.65 45.85 80.11 50.89 78.57 49.88 77.03 51.9 75.48 50.39 73.94 52.41 72.4 45.85 70.86 51.9 69.32 34.27 67.78 51.9 66.24 27.53 64.7 39.81 63.16 19.47 61.62 42.18 60.08 9.21 58.54 37.64 57 6.19 55.46 47.24 53.92 26.04 52.38 46.17 50.84 25.04 49.3 37.29 47.76 9.07 46.22 40.31 44.67 11.09 43.13 42.83 41.59 22.68 40.05 46.36 38.51 30.74 36.97 49.88 35.43 38.8 33.89 47.87 32.35 43.84 30.81 49.88 29.27 37.79 27.73 51.4 26.19 42.33 24.65 51.9 23.11 37.79 21.57 51.9 20.03 44.34 18.49 51.9 16.95 49.38 15.4 51.4 13.87 44.85 12.32 51.4 10.78 45.85 9.24 51.4 7.7 48.37 6.16 50.89 4.62 33 3.08 52.65 1.54 40.56"></polygon>
                        </g>
                    </g>
                    <g id="v-wave-copy-2" transform="translate(0.000000, 1681.000000)">
                        <g id="Asset-1" transform="translate(54.000000, 197.500000) rotate(90.000000) translate(-54.000000, -197.500000) translate(-143.500000, 143.500000)">
                            <polygon id="_Path_" transform="translate(197.320000, 53.665000) scale(-1, 1) translate(-197.320000, -53.665000) " points="0 53.41 1.54 66.27 3.08 57.52 4.62 73.83 6.16 55.93 7.7 58.45 9.24 55.43 10.78 60.97 12.32 55.43 13.87 61.98 15.4 55.43 16.95 57.44 18.49 54.92 20.03 62.48 21.57 54.92 23.11 69.03 24.65 54.92 26.19 64.5 27.73 55.43 29.27 69.03 30.81 56.94 32.35 62.99 33.89 58.95 35.43 68.03 36.97 56.94 38.51 76.09 40.05 60.47 41.59 84.15 43.13 63.99 44.67 95.74 46.22 66.51 47.76 97.75 49.3 69.54 50.84 106.32 52.38 70.69 53.92 94.16 55.46 78.54 57 96.18 58.54 66.95 60.08 93.16 61.62 64.65 63.16 79.55 64.7 58.1 66.24 71.49 67.78 54.92 69.32 72.56 70.86 54.92 72.4 60.97 73.94 54.42 75.48 56.44 77.03 54.92 78.57 56.94 80.11 55.93 81.65 60.97 83.19 54.92 84.73 62.48 86.27 54.42 87.81 56.44 89.35 54.92 90.89 62.48 92.43 55.93 93.97 59.46 95.51 56.94 97.05 66.51 98.59 58.45 100.13 82.13 101.67 56.44 103.22 69.54 104.75 56.44 106.3 77.1 107.84 58.45 109.38 90.38 110.92 58.95 112.46 101.97 114 68.53 115.54 87.36 117.08 65.51 118.62 83.14 120.16 54.92 121.7 68.53 123.24 54.92 124.78 61.98 126.32 55.43 127.86 67.52 129.4 55.43 130.94 65 132.49 54.92 134.03 62.48 135.57 54.92 137.11 76.59 138.65 73.06 140.19 85.66 141.73 64.5 143.27 79.11 144.81 69.54 146.35 74.07 147.89 63.99 149.43 83.69 150.97 69.54 152.51 92.25 154.05 69.03 155.59 96.29 157.13 76.09 158.67 96.79 160.21 67.02 161.75 81.17 163.29 65.51 164.84 80.62 166.38 56.94 167.92 66.51 169.46 55.43 171 68.03 172.54 57.95 174.08 79.11 175.62 62.99 177.16 70.04 178.7 59.46 180.24 66.51 181.78 53.41 183.32 59.96 184.86 54.42 186.4 65.51 187.94 53.92 189.48 60.47 191.02 55.93 192.56 57.95 194.1 53.41 195.65 56.44 197.19 53.41 199 67.38 200.54 61.98 202.08 74.94 203.62 55.93 205.16 58.45 206.7 55.43 208.24 60.97 209.78 55.43 211.32 61.98 212.86 55.43 214.4 57.44 215.94 54.92 217.48 62.48 219.03 54.92 220.57 69.03 222.11 54.92 223.65 64.5 225.19 55.43 226.73 69.03 228.27 56.94 229.81 62.99 231.35 58.95 232.89 68.03 234.43 56.94 235.97 76.09 237.51 60.47 239.05 84.15 240.59 63.99 242.13 84.59 243.67 55.36 245.21 86.61 246.75 69.54 248.29 106.32 249.84 79.61 251.38 105.31 252.92 89.69 254.46 107.33 256 78.1 257.54 104.31 259.08 73.57 260.62 90.7 262.16 67.02 263.7 82.64 265.24 54.92 266.78 72.56 268.32 54.92 269.86 60.97 271.4 54.42 272.94 56.44 274.48 54.92 276.02 56.94 277.56 55.93 279.11 60.97 280.65 54.92 282.19 62.48 283.73 54.42 285.27 56.44 286.81 54.92 288.35 62.48 289.89 55.93 291.43 59.46 292.97 56.94 294.51 66.51 296.05 58.45 297.59 82.13 299.13 56.44 300.67 69.54 302.21 56.44 303.75 77.1 305.29 58.45 306.83 93.72 308.38 58.95 309.92 105.31 311.46 68.53 313 90.7 314.54 65.51 316.08 83.14 317.62 54.92 319.16 68.53 320.7 54.92 322.24 61.98 323.78 55.43 325.32 67.52 326.86 55.43 328.4 65 329.94 54.92 331.48 62.48 333.02 54.92 334.56 76.59 336.1 73.06 337.64 85.66 339.19 64.5 340.73 79.11 342.27 69.54 343.81 74.07 345.35 63.99 346.89 93.72 348.43 69.54 349.97 102.29 351.51 59 353.05 96.29 354.59 66.05 356.13 106.83 357.67 67.02 359.21 91.2 360.75 65.51 362.29 80.62 363.83 56.94 365.37 66.51 366.92 55.43 368.45 68.03 370 57.95 371.54 79.11 373.08 62.99 374.62 70.04 376.16 59.46 377.7 66.51 379.24 53.41 380.78 59.96 382.32 54.42 383.86 65.51 385.4 53.92 386.94 60.47 388.48 55.93 390.02 75.79 391.56 53.41 393.1 74.28 394.64 53.41 393.1 41.47 391.56 53.41 390.02 29.92 388.48 50.89 386.94 46.36 385.4 52.91 383.86 41.32 382.32 52.41 380.78 46.86 379.24 53.41 377.7 40.31 376.16 47.37 374.62 36.78 373.08 43.84 371.54 27.71 370 48.88 368.45 38.8 366.92 51.4 365.37 40.31 363.83 49.88 362.29 26.2 360.75 41.32 359.21 15.62 357.67 39.81 356.13 -1.42108547e-14 354.59 45.23 353.05 15 351.51 52.29 349.97 4.54 348.43 37.29 346.89 13.1 345.35 42.83 343.81 32.75 342.27 37.29 340.73 27.71 339.19 42.33 337.64 21.16 336.1 33.76 334.56 30.23 333.02 51.9 331.48 44.34 329.94 51.9 328.4 41.82 326.86 51.4 325.32 39.3 323.78 51.4 322.24 44.85 320.7 51.9 319.16 38.3 317.62 51.9 316.08 23.68 314.54 41.32 313 16.12 311.46 38.3 309.92 1.51 308.38 47.87 306.83 13.1 305.29 48.37 303.75 29.73 302.21 50.39 300.67 37.29 299.13 50.39 297.59 24.69 296.05 48.37 294.51 40.31 292.97 49.88 291.43 47.37 289.89 50.89 288.35 44.34 286.81 51.9 285.27 50.39 283.73 52.41 282.19 44.34 280.65 51.9 279.11 45.85 277.56 50.89 276.02 49.88 274.48 51.9 272.94 50.39 271.4 52.41 269.86 45.85 268.32 51.9 266.78 34.27 265.24 51.9 263.7 24.19 262.16 39.81 260.62 16.12 259.08 33.26 257.54 2.52 256 47.68 254.46 18.45 252.92 36.09 251.38 1.51 249.84 27.21 248.29 0.5 246.75 37.29 245.21 9.07 243.67 40.31 242.13 11.09 240.59 42.83 239.05 22.68 237.51 46.36 235.97 30.74 234.43 49.88 232.89 38.8 231.35 47.87 229.81 43.84 228.27 49.88 226.73 37.79 225.19 51.4 223.65 42.33 222.11 51.9 220.57 37.79 219.03 51.9 217.48 44.34 215.94 51.9 214.4 49.38 212.86 51.4 211.32 44.85 209.78 51.4 208.24 45.85 206.7 51.4 205.16 48.37 203.62 50.89 202.08 25.2 200.54 44.85 199 32.75 197.19 53.41 195.65 50.39 194.1 53.41 192.56 48.88 191.02 50.89 189.48 46.36 187.94 52.91 186.4 41.32 184.86 52.41 183.32 46.86 181.78 53.41 180.24 40.31 178.7 47.37 177.16 36.78 175.62 43.84 174.08 27.71 172.54 48.88 171 38.8 169.46 51.4 167.92 40.31 166.38 49.88 164.84 26.2 163.29 41.32 161.75 15.62 160.21 39.81 158.67 -1.42108547e-14 157.13 30.74 155.59 0.5 154.05 37.79 152.51 4.54 150.97 37.29 149.43 13.1 147.89 42.83 146.35 32.75 144.81 37.29 143.27 27.71 141.73 42.33 140.19 21.16 138.65 33.76 137.11 30.23 135.57 51.9 134.03 44.34 132.49 51.9 130.94 41.82 129.4 51.4 127.86 39.3 126.32 51.4 124.78 44.85 123.24 51.9 121.7 38.3 120.16 51.9 118.62 23.68 117.08 41.32 115.54 16.12 114 38.3 112.46 7.09 110.92 47.87 109.38 18.68 107.84 48.37 106.3 29.73 104.75 50.39 103.22 37.29 101.67 50.39 100.13 24.69 98.59 48.37 97.05 40.31 95.51 49.88 93.97 47.37 92.43 50.89 90.89 44.34 89.35 51.9 87.81 50.39 86.27 52.41 84.73 44.34 83.19 51.9 81.65 45.85 80.11 50.89 78.57 49.88 77.03 51.9 75.48 50.39 73.94 52.41 72.4 45.85 70.86 51.9 69.32 34.27 67.78 51.9 66.24 27.53 64.7 39.81 63.16 19.47 61.62 42.18 60.08 9.21 58.54 37.64 57 6.19 55.46 47.24 53.92 26.04 52.38 46.17 50.84 25.04 49.3 37.29 47.76 9.07 46.22 40.31 44.67 11.09 43.13 42.83 41.59 22.68 40.05 46.36 38.51 30.74 36.97 49.88 35.43 38.8 33.89 47.87 32.35 43.84 30.81 49.88 29.27 37.79 27.73 51.4 26.19 42.33 24.65 51.9 23.11 37.79 21.57 51.9 20.03 44.34 18.49 51.9 16.95 49.38 15.4 51.4 13.87 44.85 12.32 51.4 10.78 45.85 9.24 51.4 7.7 48.37 6.16 50.89 4.62 33 3.08 52.65 1.54 40.56"></polygon>
                        </g>
                    </g>
                    <g id="v-wave-copy">
                        <g id="Asset-1-Copy" transform="translate(54.000000, 592.500000) rotate(90.000000) translate(-54.000000, -592.500000) translate(-143.500000, 538.500000)">
                            <polygon id="_Path_" points="0 53.41 1.54 66.27 3.08 57.52 4.62 73.83 6.16 55.93 7.7 58.45 9.24 55.43 10.78 60.97 12.32 55.43 13.87 61.98 15.4 55.43 16.95 57.44 18.49 54.92 20.03 62.48 21.57 54.92 23.11 69.03 24.65 54.92 26.19 64.5 27.73 55.43 29.27 69.03 30.81 56.94 32.35 62.99 33.89 58.95 35.43 68.03 36.97 56.94 38.51 76.09 40.05 60.47 41.59 84.15 43.13 63.99 44.67 95.74 46.22 66.51 47.76 97.75 49.3 69.54 50.84 106.32 52.38 70.69 53.92 94.16 55.46 78.54 57 96.18 58.54 66.95 60.08 93.16 61.62 64.65 63.16 79.55 64.7 58.1 66.24 71.49 67.78 54.92 69.32 72.56 70.86 54.92 72.4 60.97 73.94 54.42 75.48 56.44 77.03 54.92 78.57 56.94 80.11 55.93 81.65 60.97 83.19 54.92 84.73 62.48 86.27 54.42 87.81 56.44 89.35 54.92 90.89 62.48 92.43 55.93 93.97 59.46 95.51 56.94 97.05 66.51 98.59 58.45 100.13 82.13 101.67 56.44 103.22 69.54 104.75 56.44 106.3 77.1 107.84 58.45 109.38 90.38 110.92 58.95 112.46 101.97 114 68.53 115.54 87.36 117.08 65.51 118.62 83.14 120.16 54.92 121.7 68.53 123.24 54.92 124.78 61.98 126.32 55.43 127.86 67.52 129.4 55.43 130.94 65 132.49 54.92 134.03 62.48 135.57 54.92 137.11 76.59 138.65 73.06 140.19 85.66 141.73 64.5 143.27 79.11 144.81 69.54 146.35 74.07 147.89 63.99 149.43 83.69 150.97 69.54 152.51 92.25 154.05 69.03 155.59 96.29 157.13 76.09 158.67 96.79 160.21 67.02 161.75 81.17 163.29 65.51 164.84 80.62 166.38 56.94 167.92 66.51 169.46 55.43 171 68.03 172.54 57.95 174.08 79.11 175.62 62.99 177.16 70.04 178.7 59.46 180.24 66.51 181.78 53.41 183.32 59.96 184.86 54.42 186.4 65.51 187.94 53.92 189.48 60.47 191.02 55.93 192.56 57.95 194.1 53.41 195.65 56.44 197.19 53.41 199 67.38 200.54 61.98 202.08 74.94 203.62 55.93 205.16 58.45 206.7 55.43 208.24 60.97 209.78 55.43 211.32 61.98 212.86 55.43 214.4 57.44 215.94 54.92 217.48 62.48 219.03 54.92 220.57 69.03 222.11 54.92 223.65 64.5 225.19 55.43 226.73 69.03 228.27 56.94 229.81 62.99 231.35 58.95 232.89 68.03 234.43 56.94 235.97 76.09 237.51 60.47 239.05 84.15 240.59 63.99 242.13 84.59 243.67 55.36 245.21 86.61 246.75 69.54 248.29 106.32 249.84 79.61 251.38 105.31 252.92 89.69 254.46 107.33 256 78.1 257.54 104.31 259.08 73.57 260.62 90.7 262.16 67.02 263.7 82.64 265.24 54.92 266.78 72.56 268.32 54.92 269.86 60.97 271.4 54.42 272.94 56.44 274.48 54.92 276.02 56.94 277.56 55.93 279.11 60.97 280.65 54.92 282.19 62.48 283.73 54.42 285.27 56.44 286.81 54.92 288.35 62.48 289.89 55.93 291.43 59.46 292.97 56.94 294.51 66.51 296.05 58.45 297.59 82.13 299.13 56.44 300.67 69.54 302.21 56.44 303.75 77.1 305.29 58.45 306.83 93.72 308.38 58.95 309.92 105.31 311.46 68.53 313 90.7 314.54 65.51 316.08 83.14 317.62 54.92 319.16 68.53 320.7 54.92 322.24 61.98 323.78 55.43 325.32 67.52 326.86 55.43 328.4 65 329.94 54.92 331.48 62.48 333.02 54.92 334.56 76.59 336.1 73.06 337.64 85.66 339.19 64.5 340.73 79.11 342.27 69.54 343.81 74.07 345.35 63.99 346.89 93.72 348.43 69.54 349.97 102.29 351.51 59 353.05 96.29 354.59 66.05 356.13 106.83 357.67 67.02 359.21 91.2 360.75 65.51 362.29 80.62 363.83 56.94 365.37 66.51 366.92 55.43 368.45 68.03 370 57.95 371.54 79.11 373.08 62.99 374.62 70.04 376.16 59.46 377.7 66.51 379.24 53.41 380.78 59.96 382.32 54.42 383.86 65.51 385.4 53.92 386.94 60.47 388.48 55.93 390.02 75.79 391.56 53.41 393.1 74.28 394.64 53.41 393.1 41.47 391.56 53.41 390.02 29.92 388.48 50.89 386.94 46.36 385.4 52.91 383.86 41.32 382.32 52.41 380.78 46.86 379.24 53.41 377.7 40.31 376.16 47.37 374.62 36.78 373.08 43.84 371.54 27.71 370 48.88 368.45 38.8 366.92 51.4 365.37 40.31 363.83 49.88 362.29 26.2 360.75 41.32 359.21 15.62 357.67 39.81 356.13 -1.42108547e-14 354.59 45.23 353.05 15 351.51 52.29 349.97 4.54 348.43 37.29 346.89 13.1 345.35 42.83 343.81 32.75 342.27 37.29 340.73 27.71 339.19 42.33 337.64 21.16 336.1 33.76 334.56 30.23 333.02 51.9 331.48 44.34 329.94 51.9 328.4 41.82 326.86 51.4 325.32 39.3 323.78 51.4 322.24 44.85 320.7 51.9 319.16 38.3 317.62 51.9 316.08 23.68 314.54 41.32 313 16.12 311.46 38.3 309.92 1.51 308.38 47.87 306.83 13.1 305.29 48.37 303.75 29.73 302.21 50.39 300.67 37.29 299.13 50.39 297.59 24.69 296.05 48.37 294.51 40.31 292.97 49.88 291.43 47.37 289.89 50.89 288.35 44.34 286.81 51.9 285.27 50.39 283.73 52.41 282.19 44.34 280.65 51.9 279.11 45.85 277.56 50.89 276.02 49.88 274.48 51.9 272.94 50.39 271.4 52.41 269.86 45.85 268.32 51.9 266.78 34.27 265.24 51.9 263.7 24.19 262.16 39.81 260.62 16.12 259.08 33.26 257.54 2.52 256 47.68 254.46 18.45 252.92 36.09 251.38 1.51 249.84 27.21 248.29 0.5 246.75 37.29 245.21 9.07 243.67 40.31 242.13 11.09 240.59 42.83 239.05 22.68 237.51 46.36 235.97 30.74 234.43 49.88 232.89 38.8 231.35 47.87 229.81 43.84 228.27 49.88 226.73 37.79 225.19 51.4 223.65 42.33 222.11 51.9 220.57 37.79 219.03 51.9 217.48 44.34 215.94 51.9 214.4 49.38 212.86 51.4 211.32 44.85 209.78 51.4 208.24 45.85 206.7 51.4 205.16 48.37 203.62 50.89 202.08 25.2 200.54 44.85 199 32.75 197.19 53.41 195.65 50.39 194.1 53.41 192.56 48.88 191.02 50.89 189.48 46.36 187.94 52.91 186.4 41.32 184.86 52.41 183.32 46.86 181.78 53.41 180.24 40.31 178.7 47.37 177.16 36.78 175.62 43.84 174.08 27.71 172.54 48.88 171 38.8 169.46 51.4 167.92 40.31 166.38 49.88 164.84 26.2 163.29 41.32 161.75 15.62 160.21 39.81 158.67 -1.42108547e-14 157.13 30.74 155.59 0.5 154.05 37.79 152.51 4.54 150.97 37.29 149.43 13.1 147.89 42.83 146.35 32.75 144.81 37.29 143.27 27.71 141.73 42.33 140.19 21.16 138.65 33.76 137.11 30.23 135.57 51.9 134.03 44.34 132.49 51.9 130.94 41.82 129.4 51.4 127.86 39.3 126.32 51.4 124.78 44.85 123.24 51.9 121.7 38.3 120.16 51.9 118.62 23.68 117.08 41.32 115.54 16.12 114 38.3 112.46 7.09 110.92 47.87 109.38 18.68 107.84 48.37 106.3 29.73 104.75 50.39 103.22 37.29 101.67 50.39 100.13 24.69 98.59 48.37 97.05 40.31 95.51 49.88 93.97 47.37 92.43 50.89 90.89 44.34 89.35 51.9 87.81 50.39 86.27 52.41 84.73 44.34 83.19 51.9 81.65 45.85 80.11 50.89 78.57 49.88 77.03 51.9 75.48 50.39 73.94 52.41 72.4 45.85 70.86 51.9 69.32 34.27 67.78 51.9 66.24 27.53 64.7 39.81 63.16 19.47 61.62 42.18 60.08 9.21 58.54 37.64 57 6.19 55.46 47.24 53.92 26.04 52.38 46.17 50.84 25.04 49.3 37.29 47.76 9.07 46.22 40.31 44.67 11.09 43.13 42.83 41.59 22.68 40.05 46.36 38.51 30.74 36.97 49.88 35.43 38.8 33.89 47.87 32.35 43.84 30.81 49.88 29.27 37.79 27.73 51.4 26.19 42.33 24.65 51.9 23.11 37.79 21.57 51.9 20.03 44.34 18.49 51.9 16.95 49.38 15.4 51.4 13.87 44.85 12.32 51.4 10.78 45.85 9.24 51.4 7.7 48.37 6.16 50.89 4.62 33 3.08 52.65 1.54 40.56"></polygon>
                        </g>
                    </g>
                </g>
            </g>
        </g>
    </g>
</svg>