<?xml version="1.0" encoding="UTF-8"?>
<svg width="155px" height="30px" viewBox="0 0 155 30" version="1.1" xmlns="http://www.w3.org/2000/svg" xmlns:xlink="http://www.w3.org/1999/xlink">
    <!-- Generator: Sketch 43.1 (39012) - http://www.bohemiancoding.com/sketch -->
    <title>Wave</title>
    <desc>Created with Sketch.</desc>
    <defs></defs>
    <g id="Homepage" stroke="none" stroke-width="1" fill="none" fill-rule="evenodd">
        <g transform="translate(-63.000000, -1911.000000)" id="FEEDBACK" fill-rule="nonzero" fill="#759AAB">
            <g transform="translate(3.000000, 1503.000000)">
                <g id="Wave" transform="translate(60.000000, 408.000000)">
                    <polygon id="_Path_" points="0 14.8361111 0.604303797 18.4083333 1.20860759 15.9777778 1.81291139 20.5083333 2.41721519 15.5361111 3.02151899 16.2361111 3.62582278 15.3972222 4.23012658 16.9361111 4.83443038 15.3972222 5.44265823 17.2166667 6.04303797 15.3972222 6.65126582 15.9555556 7.25556962 15.2555556 7.85987342 17.3555556 8.46417722 15.2555556 9.06848101 19.175 9.67278481 15.2555556 10.2770886 17.9166667 10.8813924 15.3972222 11.4856962 19.175 12.09 15.8166667 12.6943038 17.4972222 13.2986076 16.375 13.9029114 18.8972222 14.5072152 15.8166667 15.111519 21.1361111 15.7158228 16.7972222 16.3201266 23.375 16.9244304 17.775 17.5287342 26.5944444 18.136962 18.475 18.7412658 27.1527778 19.3455696 19.3166667 19.9498734 29.5333333 20.5541772 19.6361111 21.158481 26.1555556 21.7627848 21.8166667 22.3670886 26.7166667 22.9713924 18.5972222 23.5756962 25.8777778 24.18 17.9583333 24.7843038 22.0972222 25.3886076 16.1388889 25.9929114 19.8583333 26.5972152 15.2555556 27.201519 20.1555556 27.8058228 15.2555556 28.4101266 16.9361111 29.0144304 15.1166667 29.6187342 15.6777778 30.226962 15.2555556 30.8312658 15.8166667 31.4355696 15.5361111 32.0398734 16.9361111 32.6441772 15.2555556 33.248481 17.3555556 33.8527848 15.1166667 34.4570886 15.6777778 35.0613924 15.2555556 35.6656962 17.3555556 36.27 15.5361111 36.8743038 16.5166667 37.4786076 15.8166667 38.0829114 18.475 38.6872152 16.2361111 39.291519 22.8138889 39.8958228 15.6777778 40.5040506 19.3166667 41.1044304 15.6777778 41.7126582 21.4166667 42.316962 16.2361111 42.9212658 25.1055556 43.5255696 16.375 44.1298734 28.325 44.7341772 19.0361111 45.338481 24.2666667 45.9427848 18.1972222 46.5470886 23.0944444 47.1513924 15.2555556 47.7556962 19.0361111 48.36 15.2555556 48.9643038 17.2166667 49.5686076 15.3972222 50.1729114 18.7555556 50.7772152 15.3972222 51.381519 18.0555556 51.9897468 15.2555556 52.5940506 17.3555556 53.1983544 15.2555556 53.8026582 21.275 54.406962 20.2944444 55.0112658 23.7944444 55.6155696 17.9166667 56.2198734 21.975 56.8241772 19.3166667 57.428481 20.575 58.0327848 17.775 58.6370886 23.2472222 59.2413924 19.3166667 59.8456962 25.625 60.45 19.175 61.0543038 26.7472222 61.6586076 21.1361111 62.2629114 26.8861111 62.8672152 18.6166667 63.471519 22.5472222 64.0758228 18.1972222 64.6840506 22.3944444 65.2883544 15.8166667 65.8926582 18.475 66.496962 15.3972222 67.1012658 18.8972222 67.7055696 16.0972222 68.3098734 21.975 68.9141772 17.4972222 69.518481 19.4555556 70.1227848 16.5166667 70.7270886 18.475 71.3313924 14.8361111 71.9356962 16.6555556 72.54 15.1166667 73.1443038 18.1972222 73.7486076 14.9777778 74.3529114 16.7972222 74.9572152 15.5361111 75.561519 16.0972222 76.1658228 14.8361111 76.7740506 15.6777778 77.3783544 14.8361111 78.0886076 18.7166667 78.6929114 17.2166667 79.2972152 20.8166667 79.901519 15.5361111 80.5058228 16.2361111 81.1101266 15.3972222 81.7144304 16.9361111 82.3187342 15.3972222 82.923038 17.2166667 83.5273418 15.3972222 84.1316456 15.9555556 84.7359494 15.2555556 85.3402532 17.3555556 85.948481 15.2555556 86.5527848 19.175 87.1570886 15.2555556 87.7613924 17.9166667 88.3656962 15.3972222 88.97 19.175 89.5743038 15.8166667 90.1786076 17.4972222 90.7829114 16.375 91.3872152 18.8972222 91.991519 15.8166667 92.5958228 21.1361111 93.2001266 16.7972222 93.8044304 23.375 94.4087342 17.775 95.013038 23.4972222 95.6173418 15.3777778 96.2216456 24.0583333 96.8259494 19.3166667 97.4302532 29.5333333 98.038481 22.1138889 98.6427848 29.2527778 99.2470886 24.9138889 99.8513924 29.8138889 100.455696 21.6944444 101.06 28.975 101.664304 20.4361111 102.268608 25.1944444 102.872911 18.6166667 103.477215 22.9555556 104.081519 15.2555556 104.685823 20.1555556 105.290127 15.2555556 105.89443 16.9361111 106.498734 15.1166667 107.103038 15.6777778 107.707342 15.2555556 108.311646 15.8166667 108.915949 15.5361111 109.524177 16.9361111 110.128481 15.2555556 110.732785 17.3555556 111.337089 15.1166667 111.941392 15.6777778 112.545696 15.2555556 113.15 17.3555556 113.754304 15.5361111 114.358608 16.5166667 114.962911 15.8166667 115.567215 18.475 116.171519 16.2361111 116.775823 22.8138889 117.380127 15.6777778 117.98443 19.3166667 118.588734 15.6777778 119.193038 21.4166667 119.797342 16.2361111 120.401646 26.0333333 121.009873 16.375 121.614177 29.2527778 122.218481 19.0361111 122.822785 25.1944444 123.427089 18.1972222 124.031392 23.0944444 124.635696 15.2555556 125.24 19.0361111 125.844304 15.2555556 126.448608 17.2166667 127.052911 15.3972222 127.657215 18.7555556 128.261519 15.3972222 128.865823 18.0555556 129.470127 15.2555556 130.07443 17.3555556 130.678734 15.2555556 131.283038 21.275 131.887342 20.2944444 132.491646 23.7944444 133.099873 17.9166667 133.704177 21.975 134.308481 19.3166667 134.912785 20.575 135.517089 17.775 136.121392 26.0333333 136.725696 19.3166667 137.33 28.4138889 137.934304 16.3888889 138.538608 26.7472222 139.142911 18.3472222 139.747215 29.675 140.351519 18.6166667 140.955823 25.3333333 141.560127 18.1972222 142.16443 22.3944444 142.768734 15.8166667 143.373038 18.475 143.981266 15.3972222 144.581646 18.8972222 145.189873 16.0972222 145.794177 21.975 146.398481 17.4972222 147.002785 19.4555556 147.607089 16.5166667 148.211392 18.475 148.815696 14.8361111 149.42 16.6555556 150.024304 15.1166667 150.628608 18.1972222 151.232911 14.9777778 151.837215 16.7972222 152.441519 15.5361111 153.045823 21.0527778 153.650127 14.8361111 154.25443 20.6333333 154.858734 14.8361111 154.25443 11.5194444 153.650127 14.8361111 153.045823 8.31111111 152.441519 14.1361111 151.837215 12.8777778 151.232911 14.6972222 150.628608 11.4777778 150.024304 14.5583333 149.42 13.0166667 148.815696 14.8361111 148.211392 11.1972222 147.607089 13.1583333 147.002785 10.2166667 146.398481 12.1777778 145.794177 7.69722222 145.189873 13.5777778 144.581646 10.7777778 143.981266 14.2777778 143.373038 11.1972222 142.768734 13.8555556 142.16443 7.27777778 141.560127 11.4777778 140.955823 4.33888889 140.351519 11.0583333 139.747215 0 139.142911 12.5638889 138.538608 4.16666667 137.934304 14.525 137.33 1.26111111 136.725696 10.3583333 136.121392 3.63888889 135.517089 11.8972222 134.912785 9.09722222 134.308481 10.3583333 133.704177 7.69722222 133.099873 11.7583333 132.491646 5.87777778 131.887342 9.37777778 131.283038 8.39722222 130.678734 14.4166667 130.07443 12.3166667 129.470127 14.4166667 128.865823 11.6166667 128.261519 14.2777778 127.657215 10.9166667 127.052911 14.2777778 126.448608 12.4583333 125.844304 14.4166667 125.24 10.6388889 124.635696 14.4166667 124.031392 6.57777778 123.427089 11.4777778 122.822785 4.47777778 122.218481 10.6388889 121.614177 0.419444444 121.009873 13.2972222 120.401646 3.63888889 119.797342 13.4361111 119.193038 8.25833333 118.588734 13.9972222 117.98443 10.3583333 117.380127 13.9972222 116.775823 6.85833333 116.171519 13.4361111 115.567215 11.1972222 114.962911 13.8555556 114.358608 13.1583333 113.754304 14.1361111 113.15 12.3166667 112.545696 14.4166667 111.941392 13.9972222 111.337089 14.5583333 110.732785 12.3166667 110.128481 14.4166667 109.524177 12.7361111 108.915949 14.1361111 108.311646 13.8555556 107.707342 14.4166667 107.103038 13.9972222 106.498734 14.5583333 105.89443 12.7361111 105.290127 14.4166667 104.685823 9.51944444 104.081519 14.4166667 103.477215 6.71944444 102.872911 11.0583333 102.268608 4.47777778 101.664304 9.23888889 101.06 0.7 100.455696 13.2444444 99.8513924 5.125 99.2470886 10.025 98.6427848 0.419444444 98.038481 7.55833333 97.4302532 0.138888889 96.8259494 10.3583333 96.2216456 2.51944444 95.6173418 11.1972222 95.013038 3.08055556 94.4087342 11.8972222 93.8044304 6.3 93.2001266 12.8777778 92.5958228 8.53888889 91.991519 13.8555556 91.3872152 10.7777778 90.7829114 13.2972222 90.1786076 12.1777778 89.5743038 13.8555556 88.97 10.4972222 88.3656962 14.2777778 87.7613924 11.7583333 87.1570886 14.4166667 86.5527848 10.4972222 85.948481 14.4166667 85.3402532 12.3166667 84.7359494 14.4166667 84.1316456 13.7166667 83.5273418 14.2777778 82.923038 12.4583333 82.3187342 14.2777778 81.7144304 12.7361111 81.1101266 14.2777778 80.5058228 13.4361111 79.901519 14.1361111 79.2972152 7 78.6929114 12.4583333 78.0886076 9.09722222 77.3783544 14.8361111 76.7740506 13.9972222 76.1658228 14.8361111 75.561519 13.5777778 74.9572152 14.1361111 74.3529114 12.8777778 73.7486076 14.6972222 73.1443038 11.4777778 72.54 14.5583333 71.9356962 13.0166667 71.3313924 14.8361111 70.7270886 11.1972222 70.1227848 13.1583333 69.518481 10.2166667 68.9141772 12.1777778 68.3098734 7.69722222 67.7055696 13.5777778 67.1012658 10.7777778 66.496962 14.2777778 65.8926582 11.1972222 65.2883544 13.8555556 64.6840506 7.27777778 64.0758228 11.4777778 63.471519 4.33888889 62.8672152 11.0583333 62.2629114 0 61.6586076 8.53888889 61.0543038 0.138888889 60.45 10.4972222 59.8456962 1.26111111 59.2413924 10.3583333 58.6370886 3.63888889 58.0327848 11.8972222 57.428481 9.09722222 56.8241772 10.3583333 56.2198734 7.69722222 55.6155696 11.7583333 55.0112658 5.87777778 54.406962 9.37777778 53.8026582 8.39722222 53.1983544 14.4166667 52.5940506 12.3166667 51.9897468 14.4166667 51.381519 11.6166667 50.7772152 14.2777778 50.1729114 10.9166667 49.5686076 14.2777778 48.9643038 12.4583333 48.36 14.4166667 47.7556962 10.6388889 47.1513924 14.4166667 46.5470886 6.57777778 45.9427848 11.4777778 45.338481 4.47777778 44.7341772 10.6388889 44.1298734 1.96944444 43.5255696 13.2972222 42.9212658 5.18888889 42.316962 13.4361111 41.7126582 8.25833333 41.1044304 13.9972222 40.5040506 10.3583333 39.8958228 13.9972222 39.291519 6.85833333 38.6872152 13.4361111 38.0829114 11.1972222 37.4786076 13.8555556 36.8743038 13.1583333 36.27 14.1361111 35.6656962 12.3166667 35.0613924 14.4166667 34.4570886 13.9972222 33.8527848 14.5583333 33.248481 12.3166667 32.6441772 14.4166667 32.0398734 12.7361111 31.4355696 14.1361111 30.8312658 13.8555556 30.226962 14.4166667 29.6187342 13.9972222 29.0144304 14.5583333 28.4101266 12.7361111 27.8058228 14.4166667 27.201519 9.51944444 26.5972152 14.4166667 25.9929114 7.64722222 25.3886076 11.0583333 24.7843038 5.40833333 24.18 11.7166667 23.5756962 2.55833333 22.9713924 10.4555556 22.3670886 1.71944444 21.7627848 13.1222222 21.158481 7.23333333 20.5541772 12.825 19.9498734 6.95555556 19.3455696 10.3583333 18.7412658 2.51944444 18.136962 11.1972222 17.5287342 3.08055556 16.9244304 11.8972222 16.3201266 6.3 15.7158228 12.8777778 15.111519 8.53888889 14.5072152 13.8555556 13.9029114 10.7777778 13.2986076 13.2972222 12.6943038 12.1777778 12.09 13.8555556 11.4856962 10.4972222 10.8813924 14.2777778 10.2770886 11.7583333 9.67278481 14.4166667 9.06848101 10.4972222 8.46417722 14.4166667 7.85987342 12.3166667 7.25556962 14.4166667 6.65126582 13.7166667 6.04303797 14.2777778 5.44265823 12.4583333 4.83443038 14.2777778 4.23012658 12.7361111 3.62582278 14.2777778 3.02151899 13.4361111 2.41721519 14.1361111 1.81291139 9.16666667 1.20860759 14.625 0.604303797 11.2666667"></polygon>
                </g>
            </g>
        </g>
    </g>
</svg>